<svg width="364" height="120" viewBox="0 0 364 120" fill="none" xmlns="http://www.w3.org/2000/svg">
<path d="M182.056 20.352H182.512C183.016 22.488 184.696 23.736 186.568 23.736C188.176 23.736 189.88 22.8 189.88 20.904C189.88 17.448 182.176 16.392 182.176 12.192C182.176 10.2 184 8.712 186.448 8.712C188.464 8.712 188.872 9.312 189.712 9.312C189.904 9.312 190 9.264 190.144 9.072H190.528L190.936 12.12H190.528C189.856 10.392 188.32 9.288 186.664 9.288C185.08 9.288 183.976 10.2 183.976 11.544C183.976 14.952 191.68 15.864 191.68 20.28C191.68 22.632 189.592 24.384 186.784 24.384C185.464 24.384 183.784 23.736 183.448 23.736C183.232 23.736 183.064 23.856 182.968 24H182.56L182.056 20.352ZM203.902 14.04V18.6H203.446C203.254 16.896 202.798 16.704 201.814 16.704H197.758V21.816C197.758 22.92 198.166 23.136 199.054 23.136H202.75C204.43 23.136 204.934 22.488 205.534 20.424H205.966L205.582 24H192.838V23.544H193.51C195.43 23.544 195.766 23.016 195.766 21.576V11.448C195.766 10.104 195.454 9.528 193.846 9.528H193.318V9.072H204.838L205.03 12.408H204.598C204.286 10.368 203.686 9.936 202.822 9.936H197.758V15.84H202.054C202.918 15.84 203.326 15.432 203.446 14.04H203.902ZM222.952 13.008H222.496C221.704 10.776 219.64 9.312 217.024 9.312C213.016 9.312 210.52 12.216 210.52 16.248C210.52 20.592 213.64 23.784 217.288 23.784C219.184 23.784 221.512 23.136 223.144 20.232H223.6C223.288 21.312 222.64 22.8 222.064 23.736C220.528 23.52 219.472 24.384 216.64 24.384C211.768 24.384 208.264 21.168 208.264 16.728C208.264 12.072 211.864 8.712 216.88 8.712C219.904 8.712 221.2 9.672 221.944 9.672C222.208 9.672 222.328 9.6 222.376 9.528H222.736L222.952 13.008ZM229.276 17.688V21.744C229.276 23.184 229.852 23.544 231.196 23.544H231.748V24H224.956V23.544H225.364C226.78 23.544 227.284 23.16 227.284 21.552V11.448C227.284 9.96 226.876 9.528 225.484 9.528H224.956V9.072C225.532 9.072 226.996 8.976 227.98 8.928C228.964 8.88 229.444 8.856 231.004 8.856C235.444 8.856 237.436 10.68 237.436 13.128C237.436 14.928 236.212 16.44 234.244 17.016C235.132 17.712 235.852 18.384 236.98 19.512L238.876 21.408C240.292 22.824 241.756 23.712 243.604 23.832V24.264C239.404 24.456 238.324 23.544 236.188 21.408L234.604 19.824C233.548 18.768 232.708 18.072 232.132 17.688C231.532 17.712 231.148 17.736 230.5 17.736C229.972 17.736 229.66 17.712 229.276 17.688ZM229.276 9.36V17.232C229.852 17.304 230.212 17.28 230.764 17.28C233.428 17.28 235.18 16.152 235.18 13.272C235.18 11.04 234.172 9.312 230.476 9.312C230.02 9.312 229.708 9.312 229.276 9.36ZM254.878 14.04V18.6H254.422C254.23 16.896 253.774 16.704 252.79 16.704H248.734V21.816C248.734 22.92 249.142 23.136 250.03 23.136H253.726C255.406 23.136 255.91 22.488 256.51 20.424H256.942L256.558 24H243.814V23.544H244.486C246.406 23.544 246.742 23.016 246.742 21.576V11.448C246.742 10.104 246.43 9.528 244.822 9.528H244.294V9.072H255.814L256.006 12.408H255.574C255.262 10.368 254.662 9.936 253.798 9.936H248.734V15.84H253.03C253.894 15.84 254.302 15.432 254.422 14.04H254.878ZM267.112 9.936V21.792C267.112 23.088 267.544 23.544 269.008 23.544H269.896V24H262.336V23.544H263.224C264.688 23.544 265.12 23.088 265.12 21.792V9.936H260.944C259.984 9.936 259.552 10.488 259.192 12.6H258.76L259.144 8.712H259.6C259.624 8.856 259.72 8.952 259.864 9C260.008 9.048 260.176 9.072 260.344 9.072H271.888C272.224 9.072 272.584 9 272.632 8.712H273.088L273.472 12.6H273.04C272.68 10.488 272.248 9.936 271.288 9.936H267.112ZM282.582 17.376H277.614L276.222 21.144C276.054 21.6 275.742 22.32 275.742 22.656C275.742 23.304 276.366 23.544 277.686 23.544H278.07V24H272.526V23.544C274.086 23.52 274.35 23.256 275.118 21.168L279.486 9.24L279.27 8.712H281.358L286.374 22.032C286.854 23.304 287.358 23.544 288.558 23.544V24H281.958V23.544H282.582C283.95 23.544 284.454 23.4 284.454 22.728C284.454 22.344 284.286 21.984 284.19 21.744L282.582 17.376ZM282.174 16.32L280.062 10.728L278.022 16.32H282.174ZM293.448 17.688V21.744C293.448 23.184 294.024 23.544 295.368 23.544H295.92V24H289.128V23.544H289.536C290.952 23.544 291.456 23.16 291.456 21.552V11.448C291.456 9.96 291.048 9.528 289.656 9.528H289.128V9.072C289.704 9.072 291.168 8.976 292.152 8.928C293.136 8.88 293.616 8.856 295.176 8.856C299.616 8.856 301.608 10.68 301.608 13.128C301.608 14.928 300.384 16.44 298.416 17.016C299.304 17.712 300.024 18.384 301.152 19.512L303.048 21.408C304.464 22.824 305.928 23.712 307.776 23.832V24.264C303.576 24.456 302.496 23.544 300.36 21.408L298.776 19.824C297.72 18.768 296.88 18.072 296.304 17.688C295.704 17.712 295.32 17.736 294.672 17.736C294.144 17.736 293.832 17.712 293.448 17.688ZM293.448 9.36V17.232C294.024 17.304 294.384 17.28 294.936 17.28C297.6 17.28 299.352 16.152 299.352 13.272C299.352 11.04 298.344 9.312 294.648 9.312C294.192 9.312 293.88 9.312 293.448 9.36ZM309.906 7.176H309.594L311.802 4.128C312.282 3.48 312.858 3.072 313.338 3.072C313.77 3.072 314.082 3.36 314.082 3.768C314.082 4.224 313.602 4.704 312.45 5.472L309.906 7.176ZM314.826 23.544V24H308.994V23.544C310.482 23.472 310.794 23.088 310.794 21.48V11.256C310.794 9.96 310.338 9.6 308.994 9.528V9.072H314.826V9.528C313.314 9.528 312.786 9.864 312.786 11.472V21.648C312.786 23.064 313.17 23.544 314.826 23.544ZM326.058 17.376H321.09L319.698 21.144C319.53 21.6 319.218 22.32 319.218 22.656C319.218 23.304 319.842 23.544 321.162 23.544H321.546V24H316.002V23.544C317.562 23.52 317.826 23.256 318.594 21.168L322.962 9.24L322.746 8.712H324.834L329.85 22.032C330.33 23.304 330.834 23.544 332.034 23.544V24H325.434V23.544H326.058C327.426 23.544 327.93 23.4 327.93 22.728C327.93 22.344 327.762 21.984 327.666 21.744L326.058 17.376ZM325.65 16.32L323.538 10.728L321.498 16.32H325.65ZM185.8 57.496V61.696C185.8 63.04 186.208 63.544 187.72 63.544H188.512V64H181.864V63.544H182.2C183.448 63.544 183.808 63.28 183.808 62.152V50.8C183.808 49.912 183.52 49.528 182.68 49.528H181.48V49.072C182.152 49.048 183.328 48.976 184.504 48.928C185.68 48.88 186.832 48.856 187.48 48.856C192.496 48.856 193.648 51.256 193.648 53.104C193.648 55.912 191.392 57.688 187.84 57.688C187.12 57.688 186.52 57.64 185.8 57.496ZM185.8 49.408V57.04C186.112 57.112 186.64 57.232 187.096 57.232C189.712 57.232 191.392 55.456 191.392 53.032C191.392 51.16 190.648 49.312 187.456 49.312C186.904 49.312 186.376 49.312 185.8 49.408ZM199.299 57.688V61.744C199.299 63.184 199.875 63.544 201.219 63.544H201.771V64H194.979V63.544H195.387C196.803 63.544 197.307 63.16 197.307 61.552V51.448C197.307 49.96 196.899 49.528 195.507 49.528H194.979V49.072C195.555 49.072 197.019 48.976 198.003 48.928C198.987 48.88 199.467 48.856 201.027 48.856C205.467 48.856 207.459 50.68 207.459 53.128C207.459 54.928 206.235 56.44 204.267 57.016C205.155 57.712 205.875 58.384 207.003 59.512L208.899 61.408C210.315 62.824 211.779 63.712 213.627 63.832V64.264C209.427 64.456 208.347 63.544 206.211 61.408L204.627 59.824C203.571 58.768 202.731 58.072 202.155 57.688C201.555 57.712 201.171 57.736 200.523 57.736C199.995 57.736 199.683 57.712 199.299 57.688ZM199.299 49.36V57.232C199.875 57.304 200.235 57.28 200.787 57.28C203.451 57.28 205.203 56.152 205.203 53.272C205.203 51.04 204.195 49.312 200.499 49.312C200.043 49.312 199.731 49.312 199.299 49.36ZM220.678 63.544V64H214.846V63.544C216.334 63.472 216.646 63.088 216.646 61.48V51.256C216.646 49.96 216.19 49.6 214.846 49.528V49.072H220.678V49.528C219.166 49.528 218.638 49.864 218.638 51.472V61.648C218.638 63.064 219.022 63.544 220.678 63.544ZM230.614 64.384H229.414L224.206 51.4C223.606 49.888 223.318 49.528 221.854 49.528V49.072H228.454V49.528C226.246 49.576 225.718 50.08 226.174 51.184L230.494 61.936L234.286 52.024C234.55 51.352 234.694 50.872 234.694 50.536C234.694 49.816 234.094 49.528 232.462 49.528V49.072H238.03V49.528C236.782 49.528 236.134 50.104 235.558 51.592L230.614 64.384ZM246.043 57.376H241.075L239.683 61.144C239.515 61.6 239.203 62.32 239.203 62.656C239.203 63.304 239.827 63.544 241.147 63.544H241.531V64H235.987V63.544C237.547 63.52 237.811 63.256 238.579 61.168L242.947 49.24L242.731 48.712H244.819L249.835 62.032C250.315 63.304 250.819 63.544 252.019 63.544V64H245.419V63.544H246.043C247.411 63.544 247.915 63.4 247.915 62.728C247.915 62.344 247.747 61.984 247.651 61.744L246.043 57.376ZM245.635 56.32L243.523 50.728L241.483 56.32H245.635ZM254.797 61.792V51.472C254.797 49.912 254.389 49.528 252.973 49.528H252.493V49.072C253.381 49.024 254.557 48.976 255.877 48.928C257.197 48.88 258.661 48.856 259.909 48.856C266.245 48.856 269.053 52.072 269.053 56.032C269.053 59.656 266.245 64 260.173 64H252.493V63.544H252.901C254.197 63.544 254.797 63.184 254.797 61.792ZM256.789 49.408V62.224C256.789 63.208 256.861 63.544 258.757 63.544C261.973 63.544 263.317 63.088 264.805 61.6C265.693 60.736 266.797 58.888 266.797 56.416C266.797 54.64 266.293 52.672 264.877 51.256C263.773 50.152 262.069 49.312 258.709 49.312C257.725 49.312 257.077 49.384 256.789 49.408ZM278.48 57.376H273.512L272.12 61.144C271.952 61.6 271.64 62.32 271.64 62.656C271.64 63.304 272.264 63.544 273.584 63.544H273.968V64H268.424V63.544C269.984 63.52 270.248 63.256 271.016 61.168L275.384 49.24L275.168 48.712H277.256L282.272 62.032C282.752 63.304 283.256 63.544 284.456 63.544V64H277.856V63.544H278.48C279.848 63.544 280.352 63.4 280.352 62.728C280.352 62.344 280.184 61.984 280.088 61.744L278.48 57.376ZM278.072 56.32L275.96 50.728L273.92 56.32H278.072ZM293.914 61.792V51.472C293.914 49.912 293.506 49.528 292.09 49.528H291.61V49.072C292.498 49.024 293.674 48.976 294.994 48.928C296.314 48.88 297.778 48.856 299.026 48.856C305.362 48.856 308.17 52.072 308.17 56.032C308.17 59.656 305.362 64 299.29 64H291.61V63.544H292.018C293.314 63.544 293.914 63.184 293.914 61.792ZM295.906 49.408V62.224C295.906 63.208 295.978 63.544 297.874 63.544C301.09 63.544 302.434 63.088 303.922 61.6C304.81 60.736 305.914 58.888 305.914 56.416C305.914 54.64 305.41 52.672 303.994 51.256C302.89 50.152 301.186 49.312 297.826 49.312C296.842 49.312 296.194 49.384 295.906 49.408ZM320.62 54.04V58.6H320.164C319.972 56.896 319.516 56.704 318.532 56.704H314.476V61.816C314.476 62.92 314.884 63.136 315.772 63.136H319.468C321.148 63.136 321.652 62.488 322.252 60.424H322.684L322.3 64H309.556V63.544H310.228C312.148 63.544 312.484 63.016 312.484 61.576V51.448C312.484 50.104 312.172 49.528 310.564 49.528H310.036V49.072H321.556L321.748 52.408H321.316C321.004 50.368 320.404 49.936 319.54 49.936H314.476V55.84H318.772C319.636 55.84 320.044 55.432 320.164 54.04H320.62ZM343.47 60.496L341.622 64H330.894V63.544H331.686C332.79 63.544 333.198 63.184 333.198 61.96V51.328C333.198 50.056 332.814 49.528 331.302 49.528H330.966V49.072H338.046V49.528H337.158C335.598 49.528 335.19 49.696 335.19 51.184V62.248C335.19 62.896 335.454 63.136 336.15 63.136H339.678C341.094 63.136 341.526 62.584 343.038 60.496H343.47ZM353.808 57.376H348.84L347.448 61.144C347.28 61.6 346.968 62.32 346.968 62.656C346.968 63.304 347.592 63.544 348.912 63.544H349.296V64H343.752V63.544C345.312 63.52 345.576 63.256 346.344 61.168L350.712 49.24L350.496 48.712H352.584L357.6 62.032C358.08 63.304 358.584 63.544 359.784 63.544V64H353.184V63.544H353.808C355.176 63.544 355.68 63.4 355.68 62.728C355.68 62.344 355.512 61.984 355.416 61.744L353.808 57.376ZM353.4 56.32L351.288 50.728L349.248 56.32H353.4ZM185.8 97.496V101.696C185.8 103.04 186.208 103.544 187.72 103.544H188.512V104H181.864V103.544H182.2C183.448 103.544 183.808 103.28 183.808 102.152V90.8C183.808 89.912 183.52 89.528 182.68 89.528H181.48V89.072C182.152 89.048 183.328 88.976 184.504 88.928C185.68 88.88 186.832 88.856 187.48 88.856C192.496 88.856 193.648 91.256 193.648 93.104C193.648 95.912 191.392 97.688 187.84 97.688C187.12 97.688 186.52 97.64 185.8 97.496ZM185.8 89.408V97.04C186.112 97.112 186.64 97.232 187.096 97.232C189.712 97.232 191.392 95.456 191.392 93.032C191.392 91.16 190.648 89.312 187.456 89.312C186.904 89.312 186.376 89.312 185.8 89.408ZM199.299 97.688V101.744C199.299 103.184 199.875 103.544 201.219 103.544H201.771V104H194.979V103.544H195.387C196.803 103.544 197.307 103.16 197.307 101.552V91.448C197.307 89.96 196.899 89.528 195.507 89.528H194.979V89.072C195.555 89.072 197.019 88.976 198.003 88.928C198.987 88.88 199.467 88.856 201.027 88.856C205.467 88.856 207.459 90.68 207.459 93.128C207.459 94.928 206.235 96.44 204.267 97.016C205.155 97.712 205.875 98.384 207.003 99.512L208.899 101.408C210.315 102.824 211.779 103.712 213.627 103.832V104.264C209.427 104.456 208.347 103.544 206.211 101.408L204.627 99.824C203.571 98.768 202.731 98.072 202.155 97.688C201.555 97.712 201.171 97.736 200.523 97.736C199.995 97.736 199.683 97.712 199.299 97.688ZM199.299 89.36V97.232C199.875 97.304 200.235 97.28 200.787 97.28C203.451 97.28 205.203 96.152 205.203 93.272C205.203 91.04 204.195 89.312 200.499 89.312C200.043 89.312 199.731 89.312 199.299 89.36ZM224.902 94.04V98.6H224.446C224.254 96.896 223.798 96.704 222.814 96.704H218.758V101.816C218.758 102.92 219.166 103.136 220.054 103.136H223.75C225.43 103.136 225.934 102.488 226.534 100.424H226.966L226.582 104H213.838V103.544H214.51C216.43 103.544 216.766 103.016 216.766 101.576V91.448C216.766 90.104 216.454 89.528 214.846 89.528H214.318V89.072H225.838L226.03 92.408H225.598C225.286 90.368 224.686 89.936 223.822 89.936H218.758V95.84H223.054C223.918 95.84 224.326 95.432 224.446 94.04H224.902ZM229.072 100.352H229.528C230.032 102.488 231.712 103.736 233.584 103.736C235.192 103.736 236.896 102.8 236.896 100.904C236.896 97.448 229.192 96.392 229.192 92.192C229.192 90.2 231.016 88.712 233.464 88.712C235.48 88.712 235.888 89.312 236.728 89.312C236.92 89.312 237.016 89.264 237.16 89.072H237.544L237.952 92.12H237.544C236.872 90.392 235.336 89.288 233.68 89.288C232.096 89.288 230.992 90.2 230.992 91.544C230.992 94.952 238.696 95.864 238.696 100.28C238.696 102.632 236.608 104.384 233.8 104.384C232.48 104.384 230.8 103.736 230.464 103.736C230.248 103.736 230.08 103.856 229.984 104H229.576L229.072 100.352ZM246.693 103.544V104H240.861V103.544C242.349 103.472 242.661 103.088 242.661 101.48V91.256C242.661 89.96 242.205 89.6 240.861 89.528V89.072H246.693V89.528C245.181 89.528 244.653 89.864 244.653 91.472V101.648C244.653 103.064 245.037 103.544 246.693 103.544ZM250.437 101.792V91.472C250.437 89.912 250.029 89.528 248.613 89.528H248.133V89.072C249.021 89.024 250.197 88.976 251.517 88.928C252.837 88.88 254.301 88.856 255.549 88.856C261.885 88.856 264.693 92.072 264.693 96.032C264.693 99.656 261.885 104 255.813 104H248.133V103.544H248.541C249.837 103.544 250.437 103.184 250.437 101.792ZM252.429 89.408V102.224C252.429 103.208 252.501 103.544 254.397 103.544C257.613 103.544 258.957 103.088 260.445 101.6C261.333 100.736 262.437 98.888 262.437 96.416C262.437 94.64 261.933 92.672 260.517 91.256C259.413 90.152 257.709 89.312 254.349 89.312C253.365 89.312 252.717 89.384 252.429 89.408ZM277.144 94.04V98.6H276.688C276.496 96.896 276.04 96.704 275.056 96.704H271V101.816C271 102.92 271.408 103.136 272.296 103.136H275.992C277.672 103.136 278.176 102.488 278.776 100.424H279.208L278.824 104H266.08V103.544H266.752C268.672 103.544 269.008 103.016 269.008 101.576V91.448C269.008 90.104 268.696 89.528 267.088 89.528H266.56V89.072H278.08L278.272 92.408H277.84C277.528 90.368 276.928 89.936 276.064 89.936H271V95.84H275.296C276.16 95.84 276.568 95.432 276.688 94.04H277.144ZM297.178 104.168H296.554L284.122 91.16V101.456C284.122 103.184 284.506 103.544 286.546 103.544V104H280.978V103.544H281.074C282.562 103.544 283.042 103.04 283.042 101.936V90.128C282.49 89.744 281.866 89.552 281.026 89.528V89.072H284.794L296.098 100.856V91.304C296.098 89.84 295.666 89.576 293.746 89.528V89.072H299.362V89.528C297.562 89.528 297.178 89.84 297.178 90.776V104.168ZM315.717 93.008H315.261C314.469 90.776 312.405 89.312 309.789 89.312C305.781 89.312 303.285 92.216 303.285 96.248C303.285 100.592 306.405 103.784 310.053 103.784C311.949 103.784 314.277 103.136 315.909 100.232H316.365C316.053 101.312 315.405 102.8 314.829 103.736C313.293 103.52 312.237 104.384 309.405 104.384C304.533 104.384 301.029 101.168 301.029 96.728C301.029 92.072 304.629 88.712 309.645 88.712C312.669 88.712 313.965 89.672 314.709 89.672C314.973 89.672 315.093 89.6 315.141 89.528H315.501L315.717 93.008ZM324.178 103.544V104H318.346V103.544C319.834 103.472 320.146 103.088 320.146 101.48V91.256C320.146 89.96 319.69 89.6 318.346 89.528V89.072H324.178V89.528C322.666 89.528 322.138 89.864 322.138 91.472V101.648C322.138 103.064 322.522 103.544 324.178 103.544ZM335.41 97.376H330.442L329.05 101.144C328.882 101.6 328.57 102.32 328.57 102.656C328.57 103.304 329.194 103.544 330.514 103.544H330.898V104H325.354V103.544C326.914 103.52 327.178 103.256 327.946 101.168L332.314 89.24L332.098 88.712H334.186L339.202 102.032C339.682 103.304 340.186 103.544 341.386 103.544V104H334.786V103.544H335.41C336.778 103.544 337.282 103.4 337.282 102.728C337.282 102.344 337.114 101.984 337.018 101.744L335.41 97.376ZM335.002 96.32L332.89 90.728L330.85 96.32H335.002Z" fill="#1C1E4D"/>
<path d="M59.7551 0L61.4239 3.34585L65.1869 3.88741L62.471 6.48259L63.12 10.1662L59.7551 8.42361L56.3902 10.1662L57.0338 6.48259L54.3179 3.88741L58.0809 3.34585L59.7551 0Z" fill="#1C1E4D"/>
<path d="M84.4226 6.20312L86.1132 9.54898L89.8598 10.0691L87.1439 12.6696L87.7875 16.3479L84.4226 14.6107L81.0795 16.3479L81.7067 12.6696L78.9854 10.0691L82.7538 9.54898L84.4226 6.20312Z" fill="#1C1E4D"/>
<path d="M103.351 21.2441L105.025 24.59L108.788 25.1315L106.073 27.7267L106.7 31.4104L103.351 29.6731L99.9863 31.4104L100.635 27.7267L97.9194 25.1315L101.661 24.59L103.351 21.2441Z" fill="#1C1E4D"/>
<path d="M114.149 42.8086L115.84 46.1544L119.581 46.696L116.865 49.2912L117.514 52.9534L114.149 51.2376L110.801 52.9534L111.45 49.2912L108.729 46.696L112.475 46.1544L114.149 42.8086Z" fill="#1C1E4D"/>
<path d="M114.563 67.8301L116.259 71.1759L120 71.7175L117.284 74.318L117.928 77.9802L114.563 76.2591L111.22 77.9802L111.847 74.318L109.131 71.7175L112.894 71.1759L114.563 67.8301Z" fill="#1C1E4D"/>
<path d="M103.373 89.4863L105.042 92.8322L108.805 93.3577L106.089 95.9743L106.738 99.6365L103.373 97.8992L100.008 99.6365L100.651 95.9743L97.9355 93.3577L101.699 92.8322L103.373 89.4863Z" fill="#1C1E4D"/>
<path d="M84.5569 104.547L86.2257 107.893L89.9723 108.434L87.251 111.029L87.8999 114.713L84.5569 112.976L81.192 114.713L81.8355 111.029L79.1196 108.434L82.8608 107.893L84.5569 104.547Z" fill="#1C1E4D"/>
<path d="M59.7336 109.834L61.4242 113.18L65.1709 113.721L62.455 116.322L63.0985 120L59.7336 118.263L56.3906 120L57.0177 116.322L54.2964 113.721L58.0648 113.18L59.7336 109.834Z" fill="#1C1E4D"/>
<path d="M35.4811 104.568L37.1772 107.914L40.9183 108.456L38.2025 111.051L38.846 114.713L35.4811 112.992L32.1217 114.713L32.7652 111.051L30.0493 108.456L33.8123 107.914L35.4811 104.568Z" fill="#1C1E4D"/>
<path d="M16.6492 89.5059L18.318 92.8517L22.0809 93.3933L19.365 95.9884L20.014 99.6721L16.6492 97.9348L13.3006 99.6721L13.9278 95.9884L11.2119 93.3933L14.9749 92.8517L16.6492 89.5059Z" fill="#1C1E4D"/>
<path d="M5.43724 68L7.10604 71.3244L10.869 71.866L8.15314 74.4611L8.79666 78.1448L5.43724 76.4075L2.07237 78.1448L2.71589 74.4611L0 71.866L3.76299 71.3244L5.43724 68Z" fill="#1C1E4D"/>
<path d="M5.43724 42.8086L7.10604 46.1544L10.869 46.696L8.15314 49.2912L8.79666 52.9534L5.43724 51.2376L2.07237 52.9534L2.71589 49.2912L0 46.696L3.76299 46.1544L5.43724 42.8086Z" fill="#1C1E4D"/>
<path d="M16.0764 21.2812L17.767 24.6271L21.5136 25.1526L18.7977 27.7638L19.4413 31.426L16.0764 29.6888L12.7333 31.426L13.3605 27.7638L10.6392 25.1526L14.4076 24.6271L16.0764 21.2812Z" fill="#1C1E4D"/>
<path d="M35.4437 6.20312L37.1398 9.54898L40.881 10.0905L38.1651 12.6857L38.8086 16.3694L35.4437 14.6267L32.1007 16.3694L32.7497 12.6857L30.0283 10.0905L33.7749 9.54898L35.4437 6.20312Z" fill="#1C1E4D"/>
<path d="M88.5277 68.6703C88.2768 68.6596 88.0641 68.8526 88.0532 69.0992C88.0532 69.1045 88.0532 69.1099 88.0532 69.1206C88.0532 69.3779 88.2659 69.5869 88.5277 69.5869H88.6422C88.8985 69.5762 89.1003 69.3725 89.1003 69.1206C89.1003 68.874 88.8985 68.6703 88.6422 68.6703H88.5277Z" fill="#1C1E4D"/>
<path d="M93.699 62.2625C93.2954 62.3269 92.9082 62.4663 92.5592 62.6754C92.3628 62.8095 92.1447 62.8952 91.9156 62.9381C92.0465 62.6647 92.1065 62.3644 92.0847 62.0588V59.855C92.0847 59.855 91.8011 60.6968 91.403 60.8845C91.0049 61.0722 90.2032 61.3725 90.0723 61.6513C89.9414 61.9301 89.3524 61.9301 89.1397 62.7558C89.0798 63.1205 88.9652 63.4743 88.7962 63.8014L88.6053 64.0802C88.8889 62.8524 89.047 61.603 89.0798 60.343V59.7639C89.2543 59.6191 89.4179 59.4582 89.576 59.2974C89.7451 59.0186 91.932 58.2893 92.2374 57.7102C92.5428 57.1312 92.6955 56.7558 92.8482 56.5145C93.0554 56.0212 93.1754 55.4958 93.1918 54.9649C93.1645 54.2518 93.0827 53.5387 92.9464 52.8362C92.6082 53.0025 92.3028 53.233 92.052 53.5065C91.9865 53.603 91.8993 53.6834 91.8065 53.7478C91.8447 53.5494 91.8447 53.3456 91.8065 53.1472C91.5012 52.418 91.0267 51.426 91.0267 51.426C91.0267 51.426 90.6286 52.0427 90.3995 52.4341C90.0396 53.1419 89.6796 53.2009 89.6197 53.4797C89.5651 53.7585 89.1234 53.9676 88.9761 54.5467C88.927 54.6915 88.8889 54.8416 88.8616 54.9971C88.6925 53.7639 88.4799 52.6432 88.2508 51.6352C88.2508 51.3188 88.4799 50.6057 88.7634 50.3858C89.1397 50.0159 89.3197 49.5011 89.2597 48.9864C89.2434 48.5413 89.1725 48.107 89.0525 47.6781C89.0525 47.3402 87.9127 45.8121 88.0054 45.4743L87.2637 47.099C86.7347 46.5788 86.1348 46.1284 85.4749 45.7746L84.6569 44.3912V43.6834C84.7659 43.2062 84.7659 42.7075 84.6569 42.2249C84.526 41.8871 84.2369 41.6083 84.0842 41.1794C84.0134 40.788 83.8116 40.4233 83.5116 40.1499L82.6772 39.3081C82.6772 39.3081 82.5245 39.9247 82.41 40.4287C82.2955 40.3697 82.1755 40.3215 82.0501 40.2786C81.8864 40.2249 81.7337 40.1499 81.592 40.0534C81.3465 39.737 81.0957 39.4207 80.8721 39.1579C81.0084 39.0775 81.0902 38.9381 81.1011 38.7826C81.1011 38.5252 80.8884 38.3161 80.6267 38.3161C80.3758 38.3161 80.1686 38.5145 80.1686 38.7665C80.1686 38.7719 80.1686 38.7772 80.1686 38.7879C80.1686 39.0346 80.3703 39.2383 80.6267 39.2383C80.7085 39.2598 80.7903 39.2598 80.8721 39.2383C80.8721 39.3295 81.1175 39.6137 81.4065 40.0426C81.1775 39.914 80.9484 39.8014 80.8557 39.7263C80.763 39.6512 80.5721 40.9756 80.9866 41.7424H80.7957C80.2613 41.6083 79.7105 41.5547 79.1596 41.5922C79.3669 41.5922 79.8795 42.1338 79.9395 42.4126C80.1195 42.8362 80.414 43.1955 80.7957 43.4582C81.1775 43.662 81.532 43.9247 81.8428 44.225C82.3936 44.5038 83.0154 44.6217 83.6316 44.5628C83.817 44.6807 84.0406 44.7343 84.2588 44.7129C84.5042 45.1633 84.7714 45.6083 85.0386 46.0587C84.9241 46.4448 84.8641 46.8523 84.8696 47.2545L83.3317 46.9167C83.3971 47.5333 83.6043 48.1285 83.9425 48.6539C83.877 48.7129 83.8279 48.7933 83.8116 48.8791C83.7625 49.0185 83.7625 49.1687 83.8116 49.3081C83.9806 49.5494 84.2206 49.737 84.4933 49.8496L78.7943 53.8496C79.0669 48.9542 78.8761 44.0427 78.2216 39.1794C78.9251 38.9166 78.7343 38.6003 78.7343 38.6003L78.467 37.93C78.5379 37.9515 78.6088 37.9515 78.6743 37.93C78.8052 37.93 78.9306 37.8764 79.0179 37.7799C79.2033 37.5869 79.2033 37.2812 79.0179 37.0882C78.8761 36.9649 78.7234 36.8576 78.5598 36.7719L79.3942 36.6593L79.8686 34.6968L77.9708 35.3509V36.1713C77.829 36.0212 77.6654 35.9032 77.4745 35.8174C77.2727 35.6244 76.9509 35.6244 76.7546 35.8174C76.5637 36.0158 76.5637 36.3268 76.7546 36.5252C76.9618 36.7021 77.2073 36.8255 77.4745 36.8791L67.7616 47.3992L61.3209 36.804C61.4464 34.5627 61.1191 32.3268 60.372 30.2088C60.4592 29.8603 60.4974 29.5011 60.4865 29.1418C60.7756 29.056 61.0046 28.8308 61.0973 28.5413C61.0973 28.5413 60.6229 27.9783 60.3393 27.7209H60.6992C60.9773 27.7316 61.2228 27.5279 61.25 27.2544C61.2282 26.9809 60.9937 26.7772 60.7156 26.7879C60.5301 26.7611 60.3447 26.7611 60.1648 26.7879L60.6992 26.1552L59.6903 24.3965L58.7032 26.1713L59.2376 26.7879C59.0631 26.7611 58.8832 26.7611 58.7032 26.7879C58.545 26.7879 58.3978 26.8469 58.2833 26.9541C58.1142 27.1096 58.1087 27.3724 58.2669 27.5332C58.2724 27.5386 58.2778 27.5439 58.2833 27.5493C58.3923 27.6565 58.545 27.7209 58.7032 27.7155H58.9868C58.8014 27.8871 58.6268 28.0748 58.4741 28.2785C58.4141 28.3161 58.3651 28.3697 58.3214 28.4287C58.3869 28.5681 58.485 28.6914 58.605 28.7826C56.9962 31.6244 56.4618 34.9327 57.1053 38.1231L51.5372 47.2813L41.7861 36.7236C42.0752 36.6861 42.3424 36.5574 42.5442 36.3483C42.6641 36.2517 42.7405 36.107 42.7514 35.9568C42.7514 35.8389 42.7132 35.7316 42.6369 35.6405C42.5551 35.5601 42.446 35.5118 42.3315 35.5118C42.1788 35.5118 42.0315 35.5654 41.9115 35.6619C41.7752 35.7799 41.6607 35.9193 41.568 36.0748V35.2544L39.6701 34.6003L40.1446 36.5627L40.979 36.6753C40.8099 36.7611 40.6572 36.863 40.5209 36.9917C40.4118 37.0936 40.3409 37.233 40.33 37.3831C40.33 37.4957 40.3682 37.603 40.4445 37.6834C40.5263 37.7692 40.63 37.8228 40.7499 37.8335C40.8263 37.8496 40.9026 37.8496 40.979 37.8335L40.7118 38.5038C40.7118 38.5038 40.5209 38.8201 41.2244 39.0829C40.5645 43.9461 40.3736 48.8577 40.6518 53.7531L34.8546 49.7531C35.1327 49.6459 35.3618 49.4582 35.5199 49.2116C35.5908 49.1204 35.6399 49.0078 35.6508 48.8952C35.6399 48.788 35.5908 48.6915 35.5199 48.6164C35.858 48.0909 36.0707 47.4957 36.1471 46.8791L34.6092 47.2169C34.6037 46.8148 34.5437 46.4126 34.4401 46.0212C34.6855 45.5708 34.9528 45.1258 35.22 44.6754C35.4327 44.6968 35.6508 44.6432 35.8308 44.5252C36.447 44.5842 37.0688 44.4662 37.6196 44.1874C37.9359 43.8818 38.2958 43.6244 38.683 43.4207C39.032 43.1365 39.2993 42.7719 39.4629 42.3536C39.4629 42.0748 40.0137 41.5333 40.2209 41.5333C39.6756 41.4957 39.1302 41.5493 38.6067 41.6834H38.3994C38.8357 40.9166 38.7212 39.5547 38.5521 39.6673L38.0013 39.9837L38.514 39.1794C38.5958 39.2008 38.6776 39.2008 38.7594 39.1794C38.9993 39.1097 39.1411 38.863 39.0757 38.6271C39.0102 38.3912 38.7539 38.2518 38.514 38.3161C38.274 38.3804 38.1322 38.6325 38.1976 38.8684C38.2413 39.0185 38.3613 39.1365 38.514 39.1794C38.2849 39.4421 38.0559 39.7585 37.8104 40.0748C37.6686 40.166 37.5159 40.241 37.3523 40.3C37.2269 40.3429 37.1069 40.3912 36.9924 40.4501C36.8615 39.9461 36.7252 39.3295 36.7252 39.3295L35.869 40.1713C35.5854 40.4555 35.389 40.8094 35.2963 41.2008C35.1327 41.5654 34.9418 41.914 34.7237 42.2464C34.6146 42.7236 34.6146 43.2223 34.7237 43.7048V44.4126L33.9057 45.796C33.2567 46.166 32.6568 46.611 32.1169 47.1204C31.926 46.67 31.397 45.4957 31.397 45.4957C31.397 45.9086 30.4099 47.3617 30.3336 47.6995C30.219 48.1285 30.1536 48.5681 30.1427 49.0078C30.0718 49.5226 30.2463 50.0373 30.6171 50.4073C30.9225 50.6325 31.0371 51.3403 31.1298 51.6566C30.9007 52.6647 30.6935 53.7853 30.5408 55.0185C30.5135 54.8684 30.4753 54.7183 30.4263 54.5681C30.2572 53.9891 29.8155 53.8014 29.7827 53.5011C29.75 53.2009 29.3464 53.1633 28.9865 52.4555C28.7575 52.0641 28.3593 51.4475 28.3593 51.4475C28.3593 51.4475 27.9012 52.4395 27.6013 53.1687C27.5249 53.3617 27.4868 53.5601 27.4868 53.7692C27.3941 53.6995 27.3123 53.6137 27.2414 53.5279C27.0014 53.2491 26.7015 53.0185 26.3688 52.8577C26.2215 53.5601 26.1397 54.2732 26.1234 54.9864C26.1397 55.5172 26.2543 56.0427 26.4669 56.536C26.5978 56.7773 26.7723 57.1687 27.0778 57.7317C27.3832 58.2947 29.5482 59.04 29.7391 59.3188C29.8864 59.4851 30.0445 59.6405 30.2136 59.7853V60.3644C30.2408 61.6245 30.3935 62.8738 30.6717 64.1017V63.8389C30.5081 63.5065 30.3881 63.158 30.3281 62.7934C30.099 61.973 29.5319 61.973 29.3955 61.6888C29.2592 61.4046 28.4848 61.1258 28.0485 60.9221C27.6122 60.7183 27.3668 59.8926 27.3668 59.8926V62.0963C27.345 62.3966 27.405 62.7022 27.5359 62.9757C27.2959 62.9328 27.0723 62.847 26.8705 62.7129C26.5269 62.5038 26.1452 62.3644 25.7471 62.3001C25.8398 63.0293 25.9761 63.7532 26.167 64.4663C26.347 65.0025 26.636 65.5011 27.0232 65.9247C27.2141 66.1285 27.4977 66.4663 27.994 66.9542C28.992 67.4636 30.0609 67.8229 31.168 68.0213C31.577 68.1339 31.9315 68.3966 32.1551 68.7505C32.1551 68.9167 32.2478 69.0883 32.2859 69.2009C32.4386 69.8014 32.6459 70.5253 32.8967 71.3296C32.3896 70.8416 31.7079 70.5628 30.9989 70.5628C30.5026 70.5628 28.6048 69.9998 28.6048 69.9998C29.1119 70.6004 29.461 71.3135 29.63 72.0749C28.8938 71.9462 28.1412 71.9462 27.405 72.0749C28.1739 72.6379 28.8229 73.351 29.3028 74.1661C29.5973 74.9114 30.0009 75.6084 30.5026 76.2411C30.7317 76.3698 31.3588 77.1366 31.7733 77.5494C32.1878 77.9623 33.8838 77.7532 34.451 77.7532C34.8982 77.8336 35.3291 77.9623 35.7435 78.1446C36.2725 78.8256 36.8724 79.4529 37.5323 80.0106C36.9542 79.78 36.4252 79.4422 35.9726 79.0186C35.7053 78.6433 35.9726 80.2358 36.3325 80.7559C35.8962 80.7505 35.4708 80.6272 35.0945 80.402C34.6364 80.0481 35.0945 81.6728 35.5526 82.1232C36.6379 83.0776 36.5397 83.2277 36.7143 83.3028C35.8799 83.5709 35.0018 83.6621 34.1293 83.5655C33.6166 83.2867 34.7019 84.2572 35.3454 84.4985C35.9889 84.7398 36.1635 85.4315 37.2433 85.7479C38.1377 86.1393 39.0975 86.3538 40.0737 86.3806C40.5754 86.2143 41.0935 86.091 41.6116 86.0052C42.5387 85.6031 43.4931 85.2599 44.4638 84.9757C45.5764 85.6567 46.7271 86.2787 47.9051 86.8417H48.0741H47.676C46.8361 87.083 45.9636 87.1741 45.091 87.1205C44.6929 86.9168 45.5273 88.0374 46.0399 88.4664C45.2601 88.6326 44.4584 88.6862 43.6622 88.6326C43.0895 88.52 44.802 90.1286 45.4673 90.3162C45.0528 90.4664 44.6165 90.5629 44.1748 90.5951C43.5858 90.5951 46.0726 92.1286 46.7053 92.0321C48.854 91.7318 50.8882 92.4449 51.8753 92.0321C52.8624 91.6192 53.2987 91.453 53.7731 91.3243C54.2476 91.1956 54.4766 90.7613 54.7439 90.5575C55.0275 90.2197 55.3765 89.9355 55.7692 89.7371C55.8128 89.7479 55.8564 89.7479 55.9 89.7371C56.6526 89.78 57.4107 89.78 58.1633 89.7371C57.8252 89.8658 57.5089 90.0481 57.2307 90.2787C56.1291 90.6165 55.3329 90.9114 54.9511 91.0455C53.6532 91.8926 52.4479 92.8685 51.3572 93.9624C51.3572 93.9624 53.255 93.8122 53.4677 93.8122C53.6804 93.8122 54.3785 92.579 54.6675 92.3752C54.9511 92.1715 55.2183 92.075 55.9055 91.7586C55.0329 92.965 55.2401 94.6272 56.38 95.587C55.8837 95.024 56.38 94.0535 56.38 94.0535L57.3671 94.6701C56.6199 93.3082 57.1326 91.6085 58.5178 90.8685C58.5778 90.8363 58.6377 90.8095 58.6977 90.7827H58.8886C59.1613 91.201 59.723 91.3243 60.1484 91.0562C60.2629 90.9865 60.3556 90.89 60.4265 90.7827L60.8246 90.9114C62.188 91.6192 62.717 93.276 61.9972 94.6219C61.9972 94.6326 61.9863 94.6433 61.9808 94.6487L62.9679 94.0321C62.9679 94.0321 63.5187 95.0026 62.9679 95.5656C63.9768 94.6809 64.2386 93.2278 63.5951 92.0535C64.1841 92.3323 64.5822 92.5414 64.6585 92.5951C64.7349 92.6487 65.5693 94.0321 65.8583 94.0321C66.1474 94.0321 67.9689 94.1822 67.9689 94.1822C66.8781 93.0884 65.6729 92.1125 64.3749 91.2653C64.1077 91.1366 63.2897 90.8739 62.2644 90.5575C61.9753 90.3001 61.6372 90.1018 61.2773 89.957C62.0299 89.9999 62.7879 89.9999 63.5405 89.957C63.9223 90.1661 64.2604 90.4396 64.5494 90.7613C64.833 90.965 65.0839 91.3618 65.5202 91.528C65.9565 91.6942 66.4909 91.9034 67.418 92.2358C68.3506 92.5736 70.4393 91.9195 72.5881 92.2358C73.2534 92.327 75.7075 90.7613 75.1185 90.7988C74.6768 90.7666 74.2405 90.6701 73.826 90.52C74.4914 90.3323 76.182 88.654 75.6148 88.8363C74.8186 88.89 74.0169 88.8363 73.237 88.6701C73.7715 88.2412 74.5841 87.1205 74.2078 87.3243C73.3788 87.3243 72.5608 87.1902 71.7755 86.9328H71.3774H71.5682C72.6917 86.3913 73.8697 85.7532 75.0095 85.0669C75.9747 85.3511 76.9182 85.6942 77.8399 86.0964C78.3634 86.1768 78.8761 86.3055 79.3778 86.4717C80.3594 86.4395 81.3302 86.2251 82.23 85.839C83.2389 85.5226 83.1026 84.9221 84.0352 84.5897C84.9677 84.2519 85.764 83.3725 85.2513 83.6567C84.3787 83.7532 83.5007 83.6621 82.6663 83.394C82.8572 83.394 82.6663 83.1688 83.8443 82.2143C84.3406 81.7639 84.755 80.1393 84.2806 80.4932C83.9315 80.6326 83.5553 80.6808 83.179 80.6433C83.4844 80.1178 83.8061 78.5307 83.5225 78.906C83.0808 79.3403 82.5463 79.6781 81.9628 79.898C82.6609 79.3403 83.2989 78.713 83.8607 78.032C84.2697 77.8551 84.6951 77.721 85.1313 77.6406C85.704 77.6406 87.3946 77.8443 87.8091 77.4368C88.229 77.024 88.8562 76.2572 89.0798 76.1285C89.5869 75.5012 89.9905 74.8041 90.2795 74.0535C90.7704 73.2438 91.4193 72.536 92.1774 71.9623C91.4466 71.8336 90.6995 71.8336 89.9741 71.9623C90.0887 71.2599 90.3614 70.5896 90.7704 69.9998C90.7704 69.9998 88.8725 70.4878 88.3926 70.5628C87.6782 70.5575 86.9965 70.8309 86.4947 71.3296L87.1055 69.2009C87.1328 69.0508 87.171 68.9006 87.2201 68.7505C87.4491 68.3966 87.7982 68.1392 88.2072 68.0213C89.6142 67.5548 90.8849 67.4583 91.3975 66.9542L92.3683 65.9247C92.7391 65.4904 93.0282 64.9971 93.2245 64.4663C93.4263 63.7424 93.5844 63.0025 93.699 62.2625ZM88.6271 60.9167C88.5671 61.8979 88.4199 62.8738 88.1908 63.8336C88.169 63.4422 88.0654 63.0615 87.8854 62.7129C87.6782 62.3001 87.3891 62.3001 87.2582 61.8711C87.1274 61.4422 86.6311 61.3081 86.3475 60.9757C86.0857 60.7022 85.8021 60.4502 85.4913 60.2304C85.284 61.0883 85.235 61.973 85.3386 62.847C85.3986 62.9864 85.4367 63.1312 85.4531 63.2759L85.0714 63.0347C84.7114 63.855 85.0714 64.6969 85.2786 65.4475C85.404 65.7907 85.5731 66.1178 85.7749 66.418C85.9058 66.6969 85.7749 66.9596 85.9821 67.1848C86.1893 67.41 86.4184 67.3886 86.7402 67.6727C86.7402 68.0427 86.8001 68.4073 86.9092 68.7559C86.642 69.6513 86.3366 70.6218 86.0148 71.4636C85.9876 71.1258 85.8785 70.7988 85.6931 70.5092C85.4095 70.1982 85.1968 69.839 85.0659 69.4422C84.7823 68.6969 84.2097 68.6969 84.1333 67.9301C84.0079 68.477 83.9206 69.0347 83.8661 69.5923C83.8116 70.0749 83.8498 70.5628 83.9806 71.0293C84.0079 71.3457 83.9588 71.6674 83.8497 71.9623C83.8552 71.5494 83.7625 71.1419 83.5825 70.7666C83.4407 70.5092 83.3862 70.2143 83.4298 69.9248C83.1299 70.4341 82.7645 70.906 82.3446 71.3242L82.0991 70.8953C85.7858 64.5414 84.9296 53.6673 84.7769 52.2089C85.3877 52.0963 85.2731 51.7799 85.2731 51.7799L85.0659 50.9756C85.1204 51.0239 85.1859 51.0561 85.2568 51.0668H85.3877C85.4695 51.0936 85.5567 51.0936 85.6331 51.0668C85.7367 50.9917 85.8021 50.8738 85.8021 50.7504C85.9985 51.0132 86.2602 51.2169 86.5602 51.351C87.0728 51.5011 87.4928 51.7263 87.5473 51.914C87.8636 53.2223 88.1036 54.5413 88.2672 55.8765C87.7164 55.2598 87.5636 54.0105 86.3693 53.4475C86.402 53.7263 86.402 54.0105 86.3693 54.2893C86.2821 54.6432 86.2439 55.0078 86.2548 55.3724C85.8676 55.1312 85.5404 54.8148 85.284 54.4395C85.1641 55.3295 85.2622 56.2304 85.5676 57.0722C86.0803 57.9676 86.0803 58.4556 86.6147 58.6432C86.931 58.7558 87.2201 58.9274 87.4709 59.1472C87.7218 59.3242 88.0163 59.4422 88.3272 59.4851C88.4035 59.4851 88.4799 59.528 88.518 59.5977C88.5398 59.7371 88.578 59.8765 88.6326 60.0105C88.6326 60.2733 88.6326 60.6271 88.6162 60.9274L88.6271 60.9167ZM39.4574 53.4421L43.2586 56.0212C43.215 57.3993 43.3949 58.7719 43.793 60.0963L40.6954 65.1955C40.1609 64.1285 38.8684 60.5414 39.4574 53.4421ZM33.7584 50.4341C33.8948 50.1874 34.1293 50.0105 34.4019 49.9461C34.4292 50.225 34.3419 50.5038 34.1565 50.7129C34.1183 50.788 34.0475 50.8416 33.9656 50.863C33.9057 50.8845 33.8348 50.8845 33.7748 50.863C33.7584 50.8255 33.753 50.788 33.7584 50.7504C33.7093 50.6486 33.7093 50.536 33.7584 50.4341ZM46.0563 41.8925L48.9631 45.1418C48.7831 46.9703 48.9849 48.8148 49.552 50.5628L46.8361 55.0293C46.2472 53.721 44.9165 49.8925 46.0399 41.8925H46.0563ZM57.6888 39.8174C59.0086 39.5815 60.3611 39.5815 61.6809 39.8174L62.1008 40.5091C60.5029 40.166 58.8504 40.166 57.2525 40.5091L57.6888 39.8174ZM58.0324 39.2544L59.6848 36.5252L61.3373 39.233C60.2356 39.0882 59.1122 39.0936 58.0106 39.2491H58.0269L58.0324 39.2544ZM56.8926 41.1204C58.7195 40.6271 60.6501 40.6271 62.4825 41.1204L62.9406 41.8657C60.8355 41.1418 58.545 41.1418 56.4399 41.8657L56.898 41.1204H56.8926ZM55.9818 42.6164C58.3433 41.6137 61.0155 41.6137 63.3769 42.6164L74.7804 61.4314H70.6193L70.0685 61.0561L69.8776 60.8684C69.6049 60.6808 69.2668 60.6218 68.9451 60.7022C68.7705 60.729 68.6069 60.788 68.4488 60.8684C68.2906 60.9435 68.1434 61.04 68.0125 61.1473H67.8053C67.4453 60.9596 67.1017 60.7397 66.78 60.4931C66.6873 60.4019 66.5782 60.3269 66.4582 60.2679C66.2673 60.166 66.0492 60.1124 65.8311 60.1178C65.6783 60.1017 65.5256 60.1017 65.3729 60.1178C65.1657 60.1928 64.9694 60.284 64.784 60.3966L64.4404 60.6379C64.2277 60.5092 64.0041 60.3966 63.775 60.3001C63.5623 60.2196 63.3606 60.1178 63.1642 59.9998C62.8916 59.8389 62.6298 59.662 62.3844 59.4582L62.1008 59.2545C61.8935 59.1419 61.6699 59.0722 61.4354 59.0507C61.2718 59.0239 61.1028 59.0239 60.9392 59.0507C60.7265 59.0883 60.5192 59.1687 60.3284 59.2759L60.023 59.4636V52.981C60.7265 52.981 61.2609 52.7022 61.2609 52.4019C61.13 51.4046 60.7319 50.4663 60.0993 49.6727C59.6739 49.3992 59.1231 49.3992 58.6923 49.6727C58.6923 49.6727 57.8361 50.1767 58.2724 50.8684C58.2724 50.8684 58.2724 51.0722 58.7468 50.8684C58.9104 50.8094 59.0249 50.6647 59.0522 50.4931V50.7344C59.0522 50.9756 58.7086 51.1097 58.6923 51.1258C58.5178 51.5547 58.3978 51.9998 58.3323 52.4502C58.3323 52.7505 58.8832 52.9917 59.5867 53.0293V59.6459C59.2976 59.469 59.0195 59.2759 58.7523 59.0668C58.6596 58.981 58.5559 58.906 58.4469 58.8416C58.2396 58.729 58.016 58.6593 57.7815 58.6379C57.5907 58.6111 57.3998 58.6111 57.2089 58.6379C56.9853 58.6915 56.7672 58.7719 56.5654 58.8791C56.3636 58.9917 56.1673 59.1151 55.9764 59.2545L55.731 59.1044L55.3492 58.9167C55.1693 58.8631 55.0002 58.788 54.8366 58.6915C54.3676 58.4556 53.9258 58.166 53.5277 57.8336L53.4132 57.7424C53.1023 57.5011 52.726 57.351 52.3279 57.3135H52.0225C51.7662 57.3456 51.5208 57.41 51.2808 57.5011C51.0027 57.6137 50.7464 57.7585 50.501 57.9301C50.2228 58.1124 49.9665 58.3215 49.7211 58.5467C49.4157 58.847 49.1321 59.1633 48.8485 59.5011C48.5813 59.8175 48.3359 60.1553 48.1287 60.5092C47.9596 60.7129 47.7851 60.906 47.5942 61.0883L47.2343 61.4046H44.5347L55.9764 42.6057L55.9818 42.6164ZM72.4572 55.0078L69.7576 50.5413C70.3248 48.7933 70.5266 46.9488 70.3466 45.1204L73.3134 41.8871C74.4368 49.8872 73.0843 53.6995 72.4408 55.0025H72.4572V55.0078ZM84.9841 49.9461C85.2568 50.0159 85.4913 50.1928 85.6276 50.4341C85.6549 50.5145 85.6549 50.6003 85.6276 50.6754C85.6494 50.729 85.6494 50.788 85.6276 50.8416C85.5676 50.863 85.4967 50.863 85.4367 50.8416C85.3495 50.8148 85.2786 50.7612 85.2295 50.6915C85.0495 50.4823 84.9568 50.2142 84.9623 49.9461H84.9786H84.9841ZM78.6743 65.2116L75.5766 60.091C75.9802 58.7719 76.1547 57.3939 76.0893 56.0159L79.8904 53.4368C80.4794 60.5199 79.1869 64.1071 78.6525 65.2116H78.6688H78.6743ZM38.4758 71.3028L41.3662 66.5735H76.8691L76.7001 66.4824C76.4874 66.3591 76.2856 66.225 76.0893 66.0695C75.7293 65.7907 75.4076 65.5065 75.0804 65.2116C74.7586 64.9113 74.1696 64.3323 73.7115 63.8872L72.8553 62.9703L72.4735 62.5789C72.2336 62.3537 71.9718 62.1553 71.6937 61.9784L71.3119 61.7746H75.1131L80.8721 71.3028H38.4703H38.4758ZM44.3275 61.662H46.5144C46.0945 62.0105 45.6582 62.3483 45.2055 62.67H45.0746L44.3711 63.1365C43.9894 63.4154 43.6512 63.7156 43.3077 64.0159L42.2988 64.9489L44.3329 61.662H44.3275ZM59.5321 60.3537L59.7775 60.4663L60.0611 60.5789C60.3065 60.7183 60.541 60.8738 60.7646 61.0454C61.1409 61.3403 61.49 61.6674 61.8117 62.0159C62.2862 62.5414 62.7825 63.0615 63.2951 63.5655L63.9223 64.1982C64.4567 64.7237 64.9857 65.2277 65.5584 65.7103L65.6729 65.8014H62.9734L62.7825 65.6513C62.4007 65.351 62.0244 65.0507 61.659 64.7183C61.2936 64.3859 60.8246 63.973 60.4211 63.5977C59.5485 62.7397 58.6923 61.8765 57.8742 60.981L57.438 60.5145C57.1216 60.1821 56.7781 59.8765 56.4127 59.5977C56.5872 59.469 56.7781 59.3617 56.9853 59.2813H57.3452C57.5525 59.2598 57.7652 59.3027 57.956 59.3939C58.0488 59.4422 58.136 59.5011 58.2233 59.5601C58.4305 59.7263 58.6432 59.8979 58.8668 60.0481C59.1013 60.1875 59.3413 60.3108 59.5867 60.4234L59.5321 60.3483V60.3537ZM70.7066 62.2196H70.8375L71.1429 62.3698C71.4046 62.5199 71.65 62.7022 71.8627 62.9113C72.01 63.04 72.1518 63.1741 72.2827 63.3242C72.5335 63.6084 72.8008 63.8926 73.0789 64.166L73.8206 64.9113C74.1042 65.2116 74.4314 65.5119 74.7313 65.7907H73.1716L72.3372 65.0615C72.0536 64.8202 71.8027 64.5574 71.541 64.3162C70.9683 63.7532 70.4012 63.1741 69.8667 62.595L69.5231 62.2196C69.2505 61.9515 68.956 61.6995 68.6506 61.4743C68.7869 61.3939 68.9341 61.3296 69.0868 61.2867C69.2232 61.2438 69.3704 61.2438 69.5068 61.2867L69.6595 61.3993C69.9867 61.7263 70.3575 62.0052 70.7611 62.2411L70.7066 62.225V62.2196ZM68.6178 62.4234C68.8305 62.595 69.0323 62.7934 69.2068 63.0025L70.4448 64.2894C70.8265 64.6808 71.2028 65.0561 71.6064 65.41L72.0809 65.839H69.8776L69.4413 65.4851L68.2634 64.4395L67.6198 63.8229C67.0472 63.2599 66.48 62.6808 65.9292 62.0856L65.5693 61.6942C65.3729 61.4851 65.1657 61.292 64.9421 61.1151C65.0839 61.0132 65.2366 60.9274 65.4002 60.8523H65.7438C65.8583 60.8255 65.9728 60.8255 66.0874 60.8523L66.2946 61.0025C66.6382 61.2652 66.9981 61.5065 67.3799 61.7103L67.7234 61.8389L67.9907 61.9515C68.2415 62.091 68.476 62.2518 68.6942 62.4395L68.6397 62.4234H68.6178ZM65.253 62.4234C65.5584 62.7773 65.8801 63.1151 66.2019 63.4314C66.5237 63.7478 66.7909 64.0481 67.0745 64.3269C67.3581 64.6057 68.0997 65.3188 68.6342 65.7853L68.7651 65.8979H66.7909L66.371 65.5601C65.8965 65.1687 65.4602 64.7773 65.0239 64.3644L64.3204 63.6727C63.6932 63.0722 63.1042 62.4395 62.5153 61.8068L62.0953 61.3778C61.7518 61.0132 61.37 60.6915 60.9555 60.4073C60.7701 60.284 60.5738 60.1767 60.3665 60.091C60.5356 59.973 60.7319 59.8926 60.9392 59.8497C61.0482 59.8336 61.1573 59.8336 61.2609 59.8497C61.3809 59.8229 61.5009 59.8229 61.6209 59.8497L61.8499 60.0159C62.2753 60.3591 62.7443 60.654 63.2351 60.8952H63.4424L63.8023 61.0615C64.0532 61.217 64.2986 61.3939 64.5222 61.5869C64.8112 61.8336 65.073 62.107 65.3021 62.4073L65.2475 62.4234H65.253ZM56.6036 60.8363C56.7944 61.0239 56.9635 61.2277 57.138 61.4154C57.3125 61.603 57.5579 61.8443 57.7488 62.0695C57.9397 62.2947 58.4905 62.8363 58.8504 63.2116C59.5103 63.8818 60.192 64.536 60.901 65.1741L61.7354 65.8819H42.446L42.7296 65.603L43.6022 64.7827L44.7256 63.8497L45.4673 63.3617L45.6745 63.2116C46.2962 62.7987 46.8798 62.3376 47.4251 61.8282C47.736 61.544 48.0305 61.233 48.2977 60.9113C48.5268 60.5574 48.7722 60.2196 49.0394 59.8818C49.3066 59.544 49.4975 59.3778 49.7429 59.1365C49.9883 58.8845 50.261 58.6593 50.561 58.4663C50.7518 58.3376 50.9591 58.225 51.1718 58.1285L51.6299 58.0159C51.8971 57.9783 52.1752 58.032 52.4097 58.166C52.5297 58.1714 52.6551 58.1928 52.7697 58.2196C52.9878 58.4019 53.2169 58.5735 53.4514 58.7237L54.2858 59.2116L54.7602 59.4153L55.082 59.5655C55.3492 59.7102 55.6055 59.8818 55.84 60.0695C56.1291 60.3001 56.4018 60.5521 56.6581 60.8148L56.6036 60.8309V60.8363ZM52.2134 72.6486C53.1514 73.3296 54.2203 73.8336 55.3492 74.1232C52.0171 75.0829 48.4286 74.5414 45.5436 72.6486H52.2134ZM58.8832 76.536C58.8832 76.536 59.3413 74.1446 59.603 72.6486C59.8703 74.1446 60.3447 76.536 60.3447 76.536C60.4756 77.3457 60.2247 78.1714 59.663 78.7773C59.0904 78.1661 58.8232 77.3403 58.9431 76.5146L58.8886 76.5307L58.8832 76.536ZM66.9981 72.6486H73.6679C70.7829 74.5414 67.189 75.0829 63.8623 74.1232C65.013 73.8336 66.0983 73.3242 67.0527 72.6272L66.9981 72.6433V72.6486ZM83.9915 49.1204C83.9534 49.0346 83.9534 48.9435 83.9915 48.8577C83.9806 48.8201 83.9806 48.7826 83.9915 48.7451C84.2206 48.9059 84.4169 49.099 84.5805 49.3242C84.5914 49.4046 84.5914 49.485 84.5805 49.5655C84.3569 49.4743 84.1661 49.3081 84.0461 49.099L83.9915 49.1151V49.1204ZM78.8052 37.6673C78.6906 37.7638 78.5216 37.7638 78.4071 37.6673C78.1998 37.5064 78.058 37.2705 78.0089 37.0131C78.2762 37.0292 78.527 37.1418 78.7125 37.3295C78.8161 37.4099 78.8542 37.544 78.8052 37.6673ZM78.2544 35.8013L78.996 35.5601L78.827 36.3268H78.2162L78.2544 35.8013ZM76.8473 35.9515C76.9019 35.9354 76.9618 35.9354 77.0164 35.9515C77.0982 35.9193 77.1854 35.9193 77.2618 35.9515C77.4636 36.1123 77.6054 36.3375 77.6599 36.5842H77.529C77.3 36.5359 77.0873 36.4287 76.9182 36.2678C76.771 36.1874 76.7164 36.0051 76.7982 35.8603C76.8092 35.8389 76.8255 35.8174 76.8419 35.8013V35.9515H76.8473ZM60.5956 27.0399C60.7646 27.0399 60.9174 27.0399 60.9174 27.2812C60.9174 27.5225 60.7646 27.5225 60.5956 27.5225C60.3175 27.5332 60.0393 27.4474 59.8157 27.2812C60.012 27.0667 60.3011 26.9488 60.5956 26.9649V27.0399ZM59.663 25.5815L60.0611 26.2732L59.6794 26.7236L59.2813 26.2732L59.663 25.5815ZM58.6759 27.5439C58.5832 27.5439 58.496 27.5118 58.4305 27.4528C58.4087 27.4045 58.4087 27.3509 58.4305 27.3027C58.4087 27.2544 58.4087 27.2008 58.4305 27.1525C58.5178 27.1204 58.6105 27.1204 58.6977 27.1525C58.9759 27.1204 59.254 27.2115 59.4558 27.3938C59.2104 27.5064 58.9377 27.5332 58.6759 27.4689V27.5439ZM59.5103 32.0641C59.8866 31.485 60.1757 30.8576 60.3665 30.1981C60.6229 31.6834 60.5356 33.2008 60.0993 34.6432L59.7394 34.0641L58.5614 35.93C58.4523 34.5735 58.785 33.2169 59.5103 32.0641ZM42.0806 35.9515C42.157 35.9139 42.2497 35.9139 42.326 35.9515C42.3751 35.9247 42.4296 35.9247 42.4787 35.9515C42.5005 35.9997 42.5005 36.0534 42.4787 36.1016C42.4787 36.1981 42.4296 36.2946 42.3478 36.3429C42.1679 36.5413 41.917 36.6593 41.6443 36.6807C41.6552 36.3697 41.8188 36.0855 42.0806 35.9139V35.9515ZM40.33 35.5225L41.0881 35.7638V36.3643H40.4991L40.33 35.5225ZM40.6899 37.6727C40.6409 37.6887 40.5863 37.6887 40.5372 37.6727C40.5154 37.619 40.5154 37.5601 40.5372 37.5064C40.5372 37.4099 40.5918 37.3188 40.6681 37.2652C40.8481 37.0721 41.0881 36.9542 41.3498 36.9274C41.2953 37.2062 41.148 37.4528 40.9299 37.6351C40.8535 37.678 40.7663 37.6887 40.6845 37.6727H40.6899ZM35.2745 49.1258C35.1273 49.3563 34.8928 49.5226 34.631 49.5923C34.6201 49.5172 34.6201 49.4421 34.631 49.3671C34.7891 49.1258 34.9964 48.922 35.2418 48.7665C35.2582 48.8148 35.2582 48.8684 35.2418 48.9167C35.2745 48.981 35.2909 49.0507 35.28 49.1204L35.2745 49.1258ZM30.7153 59.8872L30.8298 59.4743C30.868 59.41 30.928 59.3725 30.9989 59.3617C31.3097 59.3188 31.5988 59.2062 31.8551 59.0239C32.1114 58.8094 32.4005 58.6379 32.7113 58.5199C33.2621 58.3322 33.2621 57.8497 33.7584 56.9489C34.0638 56.107 34.162 55.2009 34.042 54.3161C33.7966 54.6915 33.4748 55.0132 33.0931 55.2491C33.0876 54.8845 33.044 54.5199 32.9622 54.166C32.9295 53.8872 32.9295 53.603 32.9622 53.3242C31.7079 53.9569 31.577 55.1901 31.0643 55.7531C31.2116 54.418 31.4461 53.099 31.7678 51.7907C32.0296 51.4958 32.3841 51.2974 32.7768 51.2277C33.0658 51.0936 33.3221 50.8952 33.5185 50.6486C33.5294 50.7773 33.6003 50.8952 33.7093 50.9649C33.7911 50.9917 33.8784 50.9917 33.9547 50.9649H34.0856C34.1565 50.9488 34.222 50.9167 34.2765 50.8738L34.1456 51.5815C34.1456 51.5815 34.0529 51.8979 34.6419 52.0105C34.511 53.5065 33.6548 64.402 37.3578 70.6969L37.0906 71.1097C36.6761 70.6862 36.3107 70.2143 36.0053 69.7103C36.0489 69.9998 36.0053 70.2894 35.8744 70.5521C35.6781 70.9221 35.5799 71.3296 35.5908 71.7478C35.4981 71.4475 35.449 71.1312 35.4599 70.8148C35.6017 70.3484 35.6454 69.8604 35.5908 69.3778C35.5363 68.8202 35.449 68.2626 35.3236 67.7156C35.3236 68.4824 34.6801 68.4824 34.391 69.2277C34.2492 69.6352 34.0365 70.0159 33.7639 70.3483C33.5621 70.6272 33.4421 70.9596 33.4203 71.3028C33.0985 70.4073 32.7931 69.4368 32.5259 68.595C32.635 68.2465 32.695 67.8765 32.695 67.5119C33.0167 67.2331 33.3221 67.2116 33.453 67.0239C33.5839 66.8363 33.453 66.536 33.6821 66.2572C33.8729 65.9516 34.0311 65.6245 34.1565 65.2867C34.4837 64.5253 34.5546 63.6835 34.3638 62.8738L33.982 63.0239C33.9929 62.8792 34.0256 62.7344 34.0747 62.595C34.1783 61.721 34.1347 60.8363 33.9438 59.9783C33.633 60.1982 33.3494 60.4502 33.0876 60.7237C32.804 61.0615 32.3078 61.2116 32.1769 61.6191C32.046 62.0266 31.7406 62.0481 31.5497 62.4609C31.3643 62.8095 31.2552 63.1902 31.2279 63.5816C31.0098 62.654 30.868 61.7103 30.7917 60.7612C30.7153 60.6111 30.6989 60.2572 30.7153 59.8818V59.8872ZM62.5316 88.5897C61.8717 88.5897 61.2173 88.7398 60.6338 89.0401C61.3809 87.8068 62.2044 86.6218 63.1042 85.4905C63.5024 86.5468 63.2842 87.7371 62.5316 88.5951V88.5897ZM58.7305 89.0401C58.1415 88.7452 57.4925 88.595 56.8326 88.5897C56.0418 87.7318 55.8019 86.5146 56.2054 85.4315C57.1107 86.5575 57.9342 87.7425 58.6759 88.9811L58.7305 89.0347V89.0401ZM80.414 80.2948C80.4303 80.2358 80.4303 80.1714 80.414 80.1071C80.5721 79.6781 80.6703 79.2331 80.6976 78.7827C80.6158 78.2197 80.4685 77.6674 80.2613 77.1366C80.0704 76.6325 79.5796 75.4744 79.0833 75.2706C79.0833 75.2706 78.6634 76.5789 78.5325 77.1366C78.4398 77.6031 78.2653 78.0535 78.0198 78.461L77.7144 78.9864C77.6763 78.6808 77.6763 78.3752 77.7144 78.0695C77.7144 77.1527 76.3292 75.7157 76.3292 75.7157C76.2856 76.5468 76.0402 77.3564 75.6094 78.0695C75.2112 78.6647 74.9495 79.3457 74.8513 80.0481C74.8131 80.536 74.6113 80.9918 74.2787 81.3564C73.8587 81.9355 74.2787 84.2894 74.2787 84.5521C73.3461 85.1312 72.3808 85.6942 71.4483 86.1393L70.5375 86.5521L70.7066 86.3859C71.3664 85.8176 71.8518 85.0776 72.1136 84.2572C72.5499 84.2572 71.5246 84.0696 70.9356 84.1286C71.2792 83.6031 71.7537 82.8953 72.0972 82.2626C72.4408 81.6299 69.834 82.4288 69.834 82.4288L69.1523 82.6915C69.3377 82.1178 69.4795 81.528 69.5722 80.9328C69.5722 80.7291 68.4869 81.083 67.6744 81.4369C67.0527 81.8068 66.4582 82.2251 65.9074 82.6862C65.1493 83.1527 65.0512 84.3484 64.7076 84.9114C64.5331 85.2117 64.3804 85.5227 64.2495 85.8444C64.2495 85.2814 63.9823 85.024 63.7532 84.9114H63.6223L62.7879 84.7827C62.0517 84.654 61.31 84.9596 60.8901 85.5655C60.5029 86.5093 60.192 87.4851 59.9575 88.4824C59.843 88.461 59.7285 88.461 59.6139 88.4824C59.5049 88.4664 59.3958 88.4664 59.2922 88.4824C59.1068 87.4476 58.8286 86.4288 58.4741 85.4369C58.0542 84.831 57.3071 84.5253 56.5763 84.654L55.7419 84.7827H55.611C55.3438 84.9114 55.0984 85.2706 55.0765 86.0696C54.9947 85.6084 54.8202 85.1741 54.5639 84.7827C54.2203 84.2197 54.1058 83.024 53.3641 82.5575C52.8024 82.0964 52.2079 81.6728 51.5753 81.3082C50.7191 80.9543 49.6775 80.6004 49.6775 80.8041C49.7593 81.3993 49.8956 81.9891 50.0756 82.5629L49.4102 82.3001C49.4102 82.3001 46.8798 81.646 47.1306 82.1339C47.3761 82.6218 47.9487 83.4583 48.3086 83.9999C47.6978 83.9999 46.6725 83.9999 47.1088 84.1286C47.3542 84.9382 47.8014 85.6728 48.4177 86.2572L48.6086 86.4235C48.265 86.2948 47.965 86.1446 47.676 86.0106C46.7653 85.5602 45.7782 85.0025 44.8456 84.4235C44.8456 84.1607 45.38 81.8068 44.9601 81.2277C44.6329 80.8631 44.4311 80.4074 44.3875 79.9194C44.2784 79.2116 44.0112 78.536 43.6076 77.9409C43.1713 77.2277 42.9314 76.4181 42.9041 75.587C42.9041 75.587 41.4207 77.024 41.4971 77.9409C41.5298 78.2465 41.5298 78.5521 41.4971 78.8578C41.4044 78.6755 41.2953 78.4985 41.1753 78.3323C40.9354 77.9194 40.7717 77.469 40.679 77.0079C40.5263 76.5414 40.1282 75.1419 40.1282 75.1419C39.6156 75.3457 39.1411 76.5039 38.9284 77.0079C38.7266 77.5387 38.5849 78.091 38.5085 78.654C38.4158 78.9918 38.7157 79.646 38.7921 79.9784C38.7812 80.0427 38.7812 80.1017 38.7921 80.1661C37.7014 79.41 36.7633 78.4663 36.0162 77.3832C36.0435 77.1205 36.1471 76.8738 36.3216 76.6754C36.7633 76.2036 37.1124 75.6567 37.3687 75.0669C37.445 74.654 37.445 74.2304 37.3687 73.8175C37.4123 73.4047 37.4832 72.9918 37.5759 72.5843H38.7539C44.0766 76.6111 51.1827 77.5494 57.3998 75.0508C57.3671 75.158 57.318 75.2653 57.2689 75.3671C57.2689 75.3671 55.371 77.9087 59.663 78.7666C63.9768 77.9087 62.079 75.3671 62.079 75.3671C62.019 75.2653 61.9644 75.158 61.9263 75.0508C68.1107 77.5441 75.1731 76.6379 80.4958 72.6594H81.6956C81.7828 73.0669 81.8428 73.4797 81.8864 73.8926C81.821 74.3055 81.821 74.7291 81.8864 75.1419C82.1428 75.7317 82.5027 76.2787 82.9499 76.7505C83.1026 76.9596 83.2008 77.2063 83.2335 77.4583C82.4918 78.5682 81.5483 79.5334 80.4412 80.3001H80.4249L80.414 80.2948Z" fill="#1C1E4D"/>
<path d="M73.5522 82.686C73.3341 82.6753 73.1432 82.8415 73.1323 83.0612C73.1323 83.0666 73.1323 83.072 73.1323 83.0827C73.1214 83.3078 73.3014 83.5008 73.5304 83.5115C73.5359 83.5115 73.5413 83.5115 73.5522 83.5115C73.7813 83.5115 73.9722 83.3293 73.9722 83.0988C73.9722 83.0934 73.9722 83.088 73.9722 83.0773C73.9613 82.8576 73.7758 82.686 73.5522 82.686Z" fill="#1C1E4D"/>
<path d="M75.9465 85.5625C75.7066 85.5625 75.5103 85.7555 75.5103 85.9913C75.5103 86.2164 75.6957 86.404 75.9302 86.404C75.9356 86.404 75.9411 86.404 75.952 86.404C76.181 86.404 76.3719 86.2218 76.3719 85.9913C76.3719 85.7608 76.1865 85.5732 75.952 85.5625H75.9465Z" fill="#1C1E4D"/>
<path d="M81.4941 76.4453C81.2651 76.4453 81.0742 76.6276 81.0742 76.858C81.0742 76.8634 81.0742 76.8688 81.0742 76.8795C81.0742 77.1046 81.2596 77.2922 81.4941 77.2922C81.7232 77.2922 81.9141 77.11 81.9141 76.8795C81.925 76.6544 81.745 76.4614 81.516 76.4507C81.5105 76.4507 81.505 76.4507 81.4941 76.4507V76.4453Z" fill="#1C1E4D"/>
<path d="M84.4824 78.5206C84.4824 78.7725 84.6842 78.9762 84.9405 78.9869C85.2023 78.9869 85.415 78.7778 85.415 78.5206C85.4041 78.2686 85.1968 78.0703 84.9405 78.0703C84.6951 78.0864 84.5042 78.2794 84.4824 78.5206Z" fill="#1C1E4D"/>
<path d="M85.561 68.7448C85.8119 68.7556 86.0246 68.5626 86.0355 68.316C86.0355 68.3107 86.0355 68.3053 86.0355 68.2946C86.09 68.0427 85.9209 67.7961 85.6646 67.7425C85.4083 67.6889 85.1574 67.8551 85.1029 68.107C85.092 68.1659 85.092 68.2303 85.1029 68.2946C85.1029 68.5411 85.3047 68.7448 85.561 68.7448Z" fill="#1C1E4D"/>
<path d="M86.9686 59.5512C86.7177 59.5405 86.505 59.7335 86.4941 59.98C86.4941 59.9854 86.4941 59.9907 86.4941 60.0015C86.4941 60.2587 86.7068 60.4678 86.9686 60.4678C87.2249 60.4571 87.4267 60.2534 87.4267 60.0015C87.4376 59.7656 87.2522 59.5619 87.0068 59.5512C86.9959 59.5512 86.9795 59.5512 86.9686 59.5512Z" fill="#1C1E4D"/>
<path d="M89.5753 52.0748C89.8262 52.0855 90.0388 51.8926 90.0497 51.646C90.0497 51.3887 89.8371 51.1797 89.5753 51.1797C89.319 51.1904 89.1172 51.3941 89.1172 51.646C89.139 51.8819 89.3299 52.0695 89.5753 52.0748Z" fill="#1C1E4D"/>
<path d="M86.2865 52.917C86.5482 52.917 86.7609 52.708 86.7609 52.4507C86.7609 52.1934 86.5482 51.9844 86.2865 51.9844C86.0247 51.9844 85.812 52.1934 85.812 52.4507C85.812 52.708 86.0247 52.917 86.2865 52.917Z" fill="#1C1E4D"/>
<path d="M83.5112 45.4644C83.5003 45.2178 83.2876 45.0249 83.0367 45.0356C82.7913 45.0356 82.5895 45.2232 82.5786 45.4644C82.5241 45.7163 82.6931 45.9629 82.9494 46.0165C83.2058 46.0701 83.4566 45.9039 83.5112 45.652C83.5221 45.593 83.5221 45.5287 83.5112 45.4644Z" fill="#1C1E4D"/>
<path d="M85.5069 44.0047C85.7632 44.0583 86.0141 43.8921 86.0686 43.6402C86.1231 43.3883 85.9541 43.1417 85.6978 43.0881C85.6378 43.0774 85.5723 43.0774 85.5069 43.0881C85.256 43.0881 85.0488 43.2864 85.0488 43.5384C85.0379 43.7849 85.2342 43.994 85.4851 44.0047C85.4905 44.0047 85.496 44.0047 85.5069 44.0047Z" fill="#1C1E4D"/>
<path d="M90.1641 60.0909C90.175 60.3374 90.3877 60.5304 90.6385 60.5197C90.8839 60.4714 91.0421 60.2302 90.993 59.989C90.9548 59.8121 90.8185 59.6781 90.6385 59.6406C90.3822 59.6406 90.175 59.8389 90.1641 60.0909Z" fill="#1C1E4D"/>
<path d="M45.7827 82.686C45.5646 82.6967 45.3846 82.8629 45.3628 83.0773C45.3628 83.3078 45.5482 83.4954 45.7827 83.5061C46.0227 83.5061 46.219 83.3131 46.219 83.0773C46.2081 82.8522 46.0118 82.6753 45.7827 82.686Z" fill="#1C1E4D"/>
<path d="M43.8245 85.9952C43.8245 85.7647 43.6391 85.5771 43.4045 85.5664C43.1646 85.5771 42.9792 85.7647 42.9683 85.9952C42.9683 86.2203 43.1537 86.4079 43.3882 86.4079C43.3936 86.4079 43.3991 86.4079 43.41 86.4079C43.6391 86.4079 43.8299 86.2257 43.8299 85.9952H43.8245Z" fill="#1C1E4D"/>
<path d="M37.8374 76.4441C37.6084 76.4441 37.4175 76.6263 37.4175 76.8568C37.4175 76.8622 37.4175 76.8675 37.4175 76.8783C37.4175 77.1034 37.6029 77.291 37.8374 77.291C38.0719 77.3392 38.3064 77.1945 38.3555 76.9587C38.4046 76.7282 38.2573 76.4977 38.0174 76.4494C37.9574 76.4387 37.8974 76.4387 37.8374 76.4494V76.4441Z" fill="#1C1E4D"/>
<path d="M34.4014 78.9869C34.6632 78.9869 34.8759 78.7778 34.8759 78.5206C34.8541 78.274 34.6523 78.081 34.4014 78.0703C34.1505 78.0703 33.9433 78.2686 33.9433 78.5206C33.9324 78.7671 34.1287 78.9762 34.3796 78.9869C34.385 78.9869 34.3905 78.9869 34.4014 78.9869Z" fill="#1C1E4D"/>
<path d="M33.7515 67.8301C33.4952 67.8408 33.2934 68.0445 33.2934 68.2964C33.2825 68.5323 33.4679 68.7359 33.7134 68.7467C33.7243 68.7467 33.7406 68.7467 33.7515 68.7467C34.0078 68.7467 34.2151 68.5483 34.226 68.2964C34.2151 68.0445 34.0078 67.8408 33.7515 67.8301Z" fill="#1C1E4D"/>
<path d="M31.3417 69.1202C31.3417 68.8736 31.14 68.6699 30.8836 68.6699C30.6273 68.6699 30.4201 68.8682 30.4092 69.1202C30.4092 69.3775 30.6219 69.5865 30.8836 69.5865C31.14 69.5758 31.3417 69.3721 31.3417 69.1202Z" fill="#1C1E4D"/>
<path d="M32.3451 60.4661C32.6068 60.4661 32.8195 60.2571 32.8195 59.9998C32.8195 59.7532 32.6178 59.5496 32.3614 59.5496C32.356 59.5496 32.3505 59.5496 32.3396 59.5496C32.0888 59.5228 31.8652 59.6996 31.8379 59.9462C31.8379 59.9945 31.8379 60.0427 31.8433 60.0909C31.8924 60.3214 32.0997 60.4769 32.3396 60.4661H32.3451Z" fill="#1C1E4D"/>
<path d="M29.7594 52.0748C30.0102 52.0748 30.212 51.8872 30.2338 51.646C30.2338 51.3887 30.0211 51.1797 29.7594 51.1797C29.5085 51.1797 29.3013 51.378 29.3013 51.6299C29.3013 51.6353 29.3013 51.6407 29.3013 51.6514C29.3013 51.8872 29.4976 52.0802 29.7376 52.0802C29.743 52.0802 29.7485 52.0802 29.7594 52.0802V52.0748Z" fill="#1C1E4D"/>
<path d="M33.0705 52.0003C32.8142 51.9467 32.5633 52.1129 32.5088 52.3648C32.4542 52.6167 32.6233 52.8633 32.8796 52.9169C32.9396 52.9276 33.0051 52.9276 33.0705 52.9169C33.3214 52.9169 33.5286 52.7186 33.5286 52.4666C33.5286 52.4613 33.5286 52.4559 33.5286 52.4452C33.5286 52.1986 33.3268 51.9949 33.0705 51.9949V52.0003Z" fill="#1C1E4D"/>
<path d="M35.8477 45.464C35.8477 45.7159 36.0494 45.9196 36.3058 45.9303C36.5675 45.9303 36.7802 45.7212 36.7802 45.464C36.7584 45.2228 36.5512 45.0352 36.3058 45.0352C36.0603 45.0352 35.8586 45.2228 35.8477 45.464Z" fill="#1C1E4D"/>
<path d="M33.7512 44.0047C34.0075 44.0583 34.2584 43.8921 34.3129 43.6402C34.3675 43.3883 34.1984 43.1417 33.9421 43.0881C33.8821 43.0774 33.8166 43.0774 33.7512 43.0881C33.4949 43.1417 33.3258 43.3883 33.3804 43.6402C33.4185 43.8225 33.5658 43.9672 33.7512 44.0047Z" fill="#1C1E4D"/>
<path d="M29.1719 60.0918C29.1828 59.8452 28.9865 59.6361 28.7356 59.6254C28.4848 59.6147 28.2721 59.8077 28.2612 60.0542C28.2503 60.3008 28.4466 60.5099 28.6975 60.5206C28.7029 60.5206 28.7084 60.5206 28.7138 60.5206C28.9592 60.5206 29.161 60.333 29.1719 60.0918Z" fill="#1C1E4D"/>
<path d="M54.1875 53.6668C54.3947 53.6668 54.4547 53.6668 54.5311 53.8705H54.662L54.5311 53.5917L55.3491 53.2541V53.0879L54.2093 53.5917L54.193 53.6668H54.1875Z" fill="#1C1E4D"/>
<path d="M53.9198 52.2467H53.7671L53.898 52.8632H54.6015V52.622C54.5088 52.6005 54.4379 52.5255 54.4106 52.4343C54.3724 52.2843 54.4706 52.1342 54.6179 52.0967C54.7596 52.0538 54.9069 52.1235 54.956 52.2628C54.956 52.2682 54.956 52.2789 54.9614 52.2843C54.9614 52.4343 54.9614 52.5469 54.8087 52.5844V52.7506C55.0051 52.6863 55.1196 52.4772 55.0541 52.2843C55.0214 52.0591 54.8087 51.9037 54.5797 51.9359C54.5579 51.9359 54.5415 51.9412 54.5197 51.9466C54.3015 51.9895 54.1652 52.1985 54.2088 52.4129C54.2088 52.4183 54.2088 52.429 54.2088 52.4343C54.2306 52.5201 54.2852 52.5898 54.3615 52.638H54.018L53.9034 52.2467H53.9198Z" fill="#1C1E4D"/>
<path d="M53.9967 51.2388C54.1439 51.2442 54.2748 51.1531 54.3184 51.0137V50.7511C54.3184 50.5474 54.3184 50.4884 54.5638 50.5099C54.8093 50.5313 54.7547 50.735 54.7329 50.8476C54.7111 50.9601 54.7329 51.1852 54.4111 51.1638V51.33C54.5366 51.3568 54.6675 51.3139 54.7547 51.2174C54.8474 51.1209 54.902 50.9976 54.9074 50.8636C54.9074 50.6385 54.9074 50.3598 54.5638 50.3383C54.4002 50.3169 54.253 50.4241 54.2203 50.5795L54.0894 50.9333C54.0785 51.0191 54.0076 51.0834 53.9203 51.0834C53.7294 51.0834 53.7131 50.8797 53.7294 50.7672C53.7185 50.6224 53.8276 50.4991 53.9749 50.4884C53.9858 50.4884 54.0021 50.4884 54.013 50.4884V50.3223C53.8603 50.3223 53.6149 50.3223 53.5767 50.7886C53.5331 50.9923 53.664 51.1906 53.8712 51.2335C53.9149 51.2442 53.953 51.2442 53.9967 51.2335V51.2388Z" fill="#1C1E4D"/>
<path d="M55.3039 49.3303L55.1731 49.2928L54.9222 50.0057L54.5077 49.8717L54.7368 49.2392L54.6004 49.1802L54.3714 49.8341L54.0114 49.7055L54.2405 49.014L54.0878 48.9551L53.8042 49.8341L55.0203 50.2093L55.3039 49.3303Z" fill="#1C1E4D"/>
<path d="M55.4795 49.0648L55.0214 48.7647L55.2286 48.4484C55.3486 48.2769 55.305 48.0464 55.1305 47.9285C55.1195 47.9231 55.1086 47.9124 55.0923 47.907C55.0159 47.8695 54.9232 47.8695 54.8469 47.907C54.7433 47.9338 54.6505 48.0035 54.6015 48.0946L54.3179 48.561L55.3813 49.2149L55.474 49.0648H55.4795ZM54.5306 48.4484L54.7214 48.1697C54.7214 48.1697 54.836 48.041 54.9123 48.0571C54.9941 48.1215 55.0159 48.234 54.9505 48.3198C54.9396 48.3359 54.9287 48.3466 54.9123 48.3573L54.7596 48.6199L54.5306 48.4538V48.4484Z" fill="#1C1E4D"/>
<path d="M55.4045 47.2934L56.2171 48.0599L56.3153 47.9312L55.5354 47.1808L55.8408 46.8646L55.7045 46.7734L55.001 47.5024L55.0991 47.5935L55.4045 47.2934Z" fill="#1C1E4D"/>
<path d="M56.8811 47.4799L56.1231 46.4883L55.9922 46.5848L56.7502 47.571L56.8811 47.4799Z" fill="#1C1E4D"/>
<path d="M57.9278 46.8835L57.8514 46.7709L57.1697 47.1032L56.9952 46.7495L57.5842 46.4118L57.5297 46.2831L56.9025 46.5994L56.7334 46.2671L57.3988 45.9294L57.3388 45.7793L56.5044 46.2081L57.0934 47.3123L57.9278 46.8835Z" fill="#1C1E4D"/>
<path d="M58.2332 46.8091L58.0641 46.0641C58.0477 45.9676 58.0477 45.8658 58.0641 45.7639L58.6531 46.718H58.8058L58.9367 45.6353C58.9476 45.7371 58.9476 45.8336 58.9367 45.9354L59.0894 46.643H59.2584L58.9912 45.4102H58.7458L58.6313 46.5304L58.0423 45.5763H57.7969L58.0805 46.7931L58.2332 46.8091Z" fill="#1C1E4D"/>
<path d="M59.9779 46.6C60.2615 46.6 60.436 46.4713 60.436 46.2623C60.4523 46.1176 60.3542 45.9836 60.2069 45.946C60.316 45.9032 60.3869 45.8013 60.376 45.6834C60.376 45.5172 60.376 45.3671 60.0542 45.3457H59.5034V46.5946H59.9779V46.6ZM59.6943 45.4958H59.9615C60.1524 45.4958 60.2069 45.4958 60.2069 45.6619C60.2069 45.8281 60.1142 45.8281 59.9397 45.812H59.6561L59.6943 45.4958ZM59.9615 46.0372C60.0924 46.0372 60.2287 46.0372 60.2287 46.2408C60.2287 46.4445 60.2287 46.4445 59.9615 46.4445H59.6398V46.0532L59.9615 46.0372Z" fill="#1C1E4D"/>
<path d="M60.8724 46.1927L61.2706 46.3053C61.4778 46.3053 61.4614 46.4715 61.4396 46.584C61.4178 46.6805 61.4178 46.7823 61.4396 46.8842H61.6305V46.2678C61.6305 46.2303 61.8377 46.2678 61.8759 46.0266C61.9141 45.7854 61.8759 45.6514 61.5705 45.5978L60.9979 45.4102L60.6543 46.6269H60.8234L60.8615 46.1981L60.8724 46.1927ZM61.0797 45.6674L61.4396 45.7961C61.4396 45.7961 61.6468 45.7961 61.5705 46.0212C61.4941 46.2463 61.4178 46.1713 61.3033 46.1499L60.9433 46.0373L61.0742 45.6621L61.0797 45.6674Z" fill="#1C1E4D"/>
<path d="M62.5086 47.4803L62.585 47.3677L61.936 46.9764L62.1269 46.6226L62.7377 46.955L62.8304 46.8478L62.225 46.4886L62.4159 46.1724L63.0594 46.5476L63.1522 46.3975L62.3396 45.9473L61.7124 47.0139L62.5086 47.4803Z" fill="#1C1E4D"/>
<path d="M63.3052 48.2613C63.5397 48.4917 63.9214 48.4917 64.1614 48.2613C64.4122 48.0951 64.4831 47.7574 64.3141 47.5108C64.3032 47.4948 64.2868 47.4733 64.2759 47.4572L63.9541 47.082L62.9834 47.8646L63.3052 48.2559V48.2613ZM64.1614 47.5698C64.2923 47.736 64.2759 47.9075 64.1614 48.1112C64.0468 48.3149 63.7251 48.2773 63.5887 48.1112L63.3979 47.886L64.0632 47.3232L64.1559 47.5644L64.1614 47.5698Z" fill="#1C1E4D"/>
<path d="M64.1614 49.629L64.2977 49.57L63.9541 48.9L64.3359 48.7124L64.6577 49.3288L64.7885 49.2538L64.4668 48.6588L64.8267 48.4712L65.1485 49.1252L65.3012 49.0662L64.8649 48.2461L63.7251 48.8089L64.1614 49.629Z" fill="#1C1E4D"/>
<path d="M65.2251 50.4349L64.3525 50.5475V50.7137L65.5905 50.5261V50.4135C65.3996 50.4135 65.3833 50.4135 65.3233 50.1348H65.1924L65.2306 50.4349H65.2251Z" fill="#1C1E4D"/>
<path d="M65.3394 51.1649C65.2249 51.1434 65.1158 51.2131 65.094 51.3257C65.094 51.3257 65.094 51.3257 65.094 51.331C65.0504 51.1917 64.9195 51.0898 64.7723 51.0898C64.6632 51.0898 64.565 51.1274 64.4887 51.2024C64.4232 51.2882 64.3905 51.3954 64.396 51.5026C64.3632 51.6955 64.4996 51.8778 64.6959 51.9099C64.7177 51.9099 64.7395 51.9099 64.7559 51.9099C64.8922 51.9367 65.0286 51.8671 65.0777 51.7438C65.1104 51.8456 65.214 51.9153 65.3231 51.9099C65.4758 51.9099 65.6667 51.9099 65.6667 51.5347C65.6994 51.3632 65.5794 51.197 65.4049 51.1649C65.3831 51.1649 65.3613 51.1649 65.3449 51.1649H65.3394ZM64.7504 51.7438C64.5596 51.7438 64.5432 51.5937 64.5432 51.5026C64.5432 51.4114 64.6741 51.2989 64.7723 51.2989C64.8759 51.2989 64.9686 51.3739 64.9686 51.4758C64.9686 51.4972 64.9686 51.5187 64.9577 51.5401C64.9686 51.6419 64.8922 51.7331 64.7886 51.7438C64.7777 51.7438 64.7614 51.7438 64.7504 51.7438ZM65.3394 51.7438C65.2304 51.7277 65.1486 51.6312 65.1486 51.5187C65.1486 51.4061 65.1486 51.3525 65.3394 51.3525C65.5303 51.3525 65.5085 51.3525 65.4921 51.5401C65.4758 51.7277 65.3994 51.7438 65.3394 51.7438Z" fill="#1C1E4D"/>
<path d="M65.1481 52.1705V52.3366C65.1481 52.3366 65.4316 52.3366 65.3771 52.6368C65.3226 52.937 65.1862 52.8619 65.1099 52.8244C65.0335 52.7869 64.9026 52.6743 64.8645 52.5457V52.3581C64.8045 52.1651 64.6463 52.015 64.4445 51.9668L64.2373 52.7708H64.3682L64.5373 52.1008C64.63 52.1598 64.69 52.2562 64.7063 52.3634V52.5135C64.7063 52.7172 64.8208 52.8887 65.0281 52.9263C65.2353 52.9691 65.4371 52.8459 65.4807 52.6422C65.4807 52.6422 65.4807 52.6314 65.4807 52.6261C65.5025 52.4117 65.3553 52.2134 65.1372 52.1758L65.1481 52.1705Z" fill="#1C1E4D"/>
<path d="M64.9039 53.3294L64.7894 53.592L63.9932 53.2168V53.3669L65.133 53.8922V53.7796C64.9803 53.651 65.0021 53.5759 65.133 53.3669L64.9039 53.3294Z" fill="#1C1E4D"/>
<path d="M58.1191 57.7392H58.25L59.1826 54.002H59.0517L58.141 57.7392H58.1246H58.1191Z" fill="#1C1E4D"/>
<path d="M57.9878 56.1136H58.1187L58.8985 53.873H58.7677L58.0096 56.06L57.9932 56.1136H57.9878Z" fill="#1C1E4D"/>
<path d="M56.6743 57.4951H56.7888L58.6867 53.7578H58.5558L56.767 57.4951H56.6743Z" fill="#1C1E4D"/>
<path d="M56.3909 56.8793L58.2887 53.7051H58.1742L56.2764 56.8633L56.3909 56.8793Z" fill="#1C1E4D"/>
<path d="M55.1738 56.9179H55.2884L58.0642 53.4434H57.9497L55.1738 56.9179Z" fill="#1C1E4D"/>
<path d="M55.366 56.0589L57.8201 53.3887L55.3496 56.0804L55.366 56.0643V56.0589Z" fill="#1C1E4D"/>
<path d="M57.6062 53.1797L53.9741 56.3164V56.429L57.5844 53.2923L57.6008 53.1797H57.6062Z" fill="#1C1E4D"/>
<path d="M57.3988 52.9544V52.8418L55.501 54.1657V54.2783L57.3988 52.9544Z" fill="#1C1E4D"/>
<path d="M57.224 52.7126V52.584L55.877 53.329V53.4416L57.224 52.7126Z" fill="#1C1E4D"/>
<path d="M55.6265 52.9538V53.0825L57.0335 52.4661V52.3535L55.6265 52.9538Z" fill="#1C1E4D"/>
<path d="M55.4575 52.5264L55.5175 52.6551L56.9409 52.2102L56.9791 52.1887L56.9409 52.0762L55.4575 52.5264Z" fill="#1C1E4D"/>
<path d="M56.9024 51.9255C56.897 51.8826 56.897 51.8398 56.9024 51.7969L55.3809 52.1131V52.2418L56.9024 51.9255Z" fill="#1C1E4D"/>
<path d="M55.2676 51.6676V51.7963L56.8273 51.6462C56.8382 51.5979 56.8382 51.5443 56.8273 51.4961L55.2676 51.6623V51.6676Z" fill="#1C1E4D"/>
<path d="M55.2676 50.9392L56.8055 51.0678V50.9392L55.2839 50.8105L55.2676 50.9392Z" fill="#1C1E4D"/>
<path d="M55.3271 50.4509L56.8651 50.7886V50.66L55.3271 50.3223V50.4509Z" fill="#1C1E4D"/>
<path d="M55.4414 50.0427L56.903 50.5305C56.9139 50.4876 56.9139 50.4448 56.903 50.4019L55.4414 49.9355V50.0481V50.0427Z" fill="#1C1E4D"/>
<path d="M55.6265 49.4961V49.6247L57.0717 50.2251V50.1125L55.6646 49.5122L55.6265 49.4961Z" fill="#1C1E4D"/>
<path d="M55.7791 49.2161L57.1479 49.9611V49.8486L55.7627 49.1035L55.7791 49.2161Z" fill="#1C1E4D"/>
<path d="M56.0308 48.8802L57.2851 49.7592V49.6681L56.0308 48.7891V48.8802Z" fill="#1C1E4D"/>
<path d="M56.4287 48.3984L57.5903 49.3901L56.4505 48.4199L56.4342 48.4038L56.4287 48.3984Z" fill="#1C1E4D"/>
<path d="M56.7499 48.0801H56.6572L57.7043 49.1628H57.8188L56.7718 48.0962L56.7554 48.0801H56.7499Z" fill="#1C1E4D"/>
<path d="M57.0942 47.8173H57.0015L57.9504 48.9965L58.0431 48.9054L57.1324 47.7637L57.0942 47.8173Z" fill="#1C1E4D"/>
<path d="M57.5305 47.5547H57.416L58.1741 48.825H58.2886L57.5469 47.5761L57.5305 47.56V47.5547Z" fill="#1C1E4D"/>
<path d="M57.9278 47.3887H57.7969L58.4404 48.7126H58.5549L57.9441 47.4262L57.9278 47.3887Z" fill="#1C1E4D"/>
<path d="M58.4634 47.2383H58.3325L58.8288 48.6212H58.9597L58.4634 47.2758V47.2383Z" fill="#1C1E4D"/>
<path d="M58.8233 47.1035H58.6924L58.9978 48.5615H59.1505L58.8451 47.125L58.8287 47.1089L58.8233 47.1035Z" fill="#1C1E4D"/>
<path d="M59.3182 48.5467H59.4487L59.2965 47.0137H59.166L59.3182 48.5467Z" fill="#1C1E4D"/>
<path d="M59.7169 47.0137H59.5864V48.4877H59.7169V47.0137Z" fill="#1C1E4D"/>
<path d="M59.8701 48.5248H60.0006L60.1528 47.0293H60.0223L59.8701 48.5248Z" fill="#1C1E4D"/>
<path d="M60.3609 48.601L60.6663 47.127H60.5354L60.23 48.601H60.3609Z" fill="#1C1E4D"/>
<path d="M61.0477 47.2773H60.9168L60.4424 48.6602H60.5733L61.0477 47.2988V47.2827V47.2773Z" fill="#1C1E4D"/>
<path d="M61.4629 47.4433H61.332L60.7212 48.7673H60.8357L61.4465 47.4219L61.4629 47.438V47.4433Z" fill="#1C1E4D"/>
<path d="M61.7124 47.5547L60.9871 48.825L60.9707 48.8411L61.1016 48.9162L61.8269 47.6297L61.7124 47.5547Z" fill="#1C1E4D"/>
<path d="M61.2163 48.9761H61.3308L62.2416 47.7969H62.1271L61.2163 48.9761Z" fill="#1C1E4D"/>
<path d="M61.4458 49.1789L61.5385 49.2754L62.5474 48.1873L62.5856 48.1712L62.4711 48.0801L61.4458 49.1789Z" fill="#1C1E4D"/>
<path d="M62.7727 48.3964L61.6396 49.3945L61.727 49.4904L62.86 48.4922L62.7727 48.3964Z" fill="#1C1E4D"/>
<path d="M61.8823 49.6076V49.6987L63.0821 48.8411V48.7285L61.8823 49.6076Z" fill="#1C1E4D"/>
<path d="M62.0347 49.8169C62.0401 49.8597 62.0401 49.9026 62.0347 49.9455L63.3435 49.2165V49.0879L62.0347 49.8169Z" fill="#1C1E4D"/>
<path d="M62.2632 50.096V50.2246L63.632 49.6243V49.5117L62.2632 50.0906V50.096Z" fill="#1C1E4D"/>
<path d="M62.2632 50.3745C62.2632 50.4174 62.2632 50.4603 62.2632 50.5032L63.6702 50.0368V49.9082L62.2632 50.3745Z" fill="#1C1E4D"/>
<path d="M62.2643 50.6385C62.2589 50.6813 62.2589 50.7242 62.2643 50.7671L63.7477 50.4294V50.3008L62.2643 50.6385Z" fill="#1C1E4D"/>
<path d="M62.3779 50.9162C62.3888 50.959 62.3888 51.0019 62.3779 51.0448L63.8395 50.9162V50.75L62.3779 50.9162Z" fill="#1C1E4D"/>
<path d="M62.4165 51.2775H63.9162V51.1484H62.4165V51.2775Z" fill="#1C1E4D"/>
<path d="M62.3779 51.7598C62.3779 51.8026 62.3779 51.8455 62.3779 51.8884L63.8231 52.2261V52.0975L62.3779 51.7598Z" fill="#1C1E4D"/>
<path d="M63.8777 51.7792V51.6505L62.3779 51.4844C62.3888 51.5165 62.3888 51.5487 62.3779 51.5755L63.8395 51.7417L63.8777 51.7792Z" fill="#1C1E4D"/>
<path d="M63.6701 52.618V52.4894L62.2631 52.0605C62.2522 52.0981 62.2522 52.1356 62.2631 52.1731L63.6319 52.6234H63.6701V52.618Z" fill="#1C1E4D"/>
<path d="M62.2632 52.3223V52.4509L63.5939 53.0298V52.9012L62.2632 52.3223Z" fill="#1C1E4D"/>
<path d="M62.0122 52.6172L63.2665 53.3462V53.2175L62.0667 52.6172H62.0122Z" fill="#1C1E4D"/>
<path d="M61.8438 52.9173L63.7416 54.2627V54.1501L61.8438 52.8262C61.8438 52.8262 61.8819 52.8798 61.8438 52.9173Z" fill="#1C1E4D"/>
<path d="M61.7525 53.0508V53.1634L65.1173 56.3591V56.2679L61.6216 53.1473L61.7525 53.0561V53.0508Z" fill="#1C1E4D"/>
<path d="M61.4458 53.3457L63.8018 56.0159H63.9163L61.5603 53.3457H61.4458Z" fill="#1C1E4D"/>
<path d="M61.2383 53.5184L63.8996 56.993L64.0142 56.9018L61.3365 53.4434L61.2437 53.5184H61.2383Z" fill="#1C1E4D"/>
<path d="M60.9482 53.6841L62.8461 56.8047H62.9606L61.0628 53.668L60.9482 53.6841Z" fill="#1C1E4D"/>
<path d="M60.7036 53.8125L62.416 57.5498H62.5469L60.8181 53.8125H60.7036Z" fill="#1C1E4D"/>
<path d="M60.3604 53.9106L61.0802 56.0975H61.2111L60.4531 53.873L60.3604 53.9106Z" fill="#1C1E4D"/>
<path d="M60.1309 53.9844L61.0252 57.7217H61.1561L60.2617 53.9844H60.1309Z" fill="#1C1E4D"/>
<path d="M46.7707 78.7773C46.7707 78.7773 46.3344 79.2812 46.5798 79.6939C46.8197 79.9834 47.2506 80.0263 47.5396 79.7958C47.5778 79.7636 47.6105 79.7314 47.6432 79.6939C47.6432 79.6939 46.5961 79.7314 46.7707 78.7773Z" fill="#1C1E4D"/>
<path d="M71.7646 79.7154C72.0046 80.0048 72.4354 80.0477 72.7245 79.8172C72.7627 79.7851 72.7954 79.7529 72.8281 79.7154C73.0735 79.3027 72.6372 78.7988 72.6372 78.7988C72.7136 79.7315 71.7646 79.7154 71.7646 79.7154Z" fill="#1C1E4D"/>
<path d="M50.6695 78.2947L50.4405 78.166L49.8896 79.0826L50.1187 79.2112C50.3368 79.372 50.6477 79.3238 50.8113 79.1094C50.8331 79.0826 50.8495 79.0558 50.8604 79.0236C51.024 78.8092 50.9749 78.5037 50.7568 78.3429C50.7295 78.3215 50.7022 78.3054 50.6695 78.2947Z" fill="#1C1E4D"/>
<path d="M52.4896 79.2282C52.2278 79.0996 51.9061 79.2068 51.7752 79.4694C51.7752 79.4748 51.7697 79.4855 51.7643 79.4909C51.6279 79.7589 51.737 80.0858 52.0097 80.2198C52.2878 80.3485 52.6205 80.2306 52.7514 79.9572C52.8823 79.6838 52.7623 79.3569 52.4841 79.2282H52.4896Z" fill="#1C1E4D"/>
<path d="M58.8216 80.8374C58.5271 80.8159 58.2762 81.0357 58.2544 81.3198C58.2544 81.3251 58.2544 81.3359 58.2544 81.3412C58.2544 81.6307 58.4944 81.8665 58.7888 81.8665C59.0833 81.8665 59.3233 81.6307 59.3233 81.3412C59.3124 81.0732 59.0997 80.8535 58.827 80.8374H58.8216Z" fill="#1C1E4D"/>
<path d="M63.9538 80.9124H63.6484L63.763 81.3787H64.0847C64.2102 81.3573 64.292 81.2393 64.2647 81.116C64.2647 81.1053 64.2592 81.0892 64.2538 81.0785C64.232 80.9552 64.112 80.8748 63.9866 80.9016C63.9757 80.9016 63.9593 80.907 63.9484 80.9124H63.9538Z" fill="#1C1E4D"/>
<path d="M64.0479 80.484C64.0097 80.3768 63.8952 80.3071 63.7807 80.3339H63.4971L63.6116 80.7466H63.8952C63.9988 80.7359 64.0752 80.6448 64.0642 80.5376C64.0642 80.5161 64.0588 80.5 64.0479 80.484Z" fill="#1C1E4D"/>
<path d="M66.0649 79.6404H65.645L65.8359 80.1282L66.1031 80.0156C66.234 79.9781 66.3104 79.8387 66.2667 79.7154C66.2667 79.7047 66.2613 79.694 66.2558 79.6833C66.2013 79.6404 66.1304 79.6297 66.0649 79.6458V79.6404Z" fill="#1C1E4D"/>
<path d="M67.9634 78.9654V79.4318L68.3615 79.2281L67.9634 78.9118V78.7832C67.9688 78.8475 67.9688 78.9065 67.9634 78.9708V78.9654Z" fill="#1C1E4D"/>
<path d="M72.0306 79.0617L71.5725 78.8955C71.8888 78.7775 72.2269 78.7454 72.5596 78.8044L72.0088 78.3164C70.869 77.3084 69.2111 77.0993 67.8477 77.791C62.8304 80.8526 56.4824 80.8526 51.4651 77.791C50.1071 77.0939 48.4547 77.303 47.3203 78.3164L46.7695 78.8044C47.1022 78.7507 47.4403 78.7829 47.7566 78.8955L47.2985 79.0617C47.8875 79.2869 47.6421 79.7159 47.6421 79.7159L48.3456 79.0993C49.42 79.5443 50.4562 80.0537 51.4651 80.6328C53.9628 82.0162 56.7878 82.7186 59.6564 82.6703C62.5195 82.7293 65.35 82.0322 67.8477 80.6542C68.8512 80.0751 69.8928 79.5658 70.9672 79.1207L71.687 79.7373C71.687 79.7373 71.4416 79.2869 72.0306 79.0671V79.0617ZM50.0417 79.362L49.6218 79.1368L50.3635 77.9036L50.7834 78.1448C51.1379 78.3218 51.2797 78.7507 51.0997 79.0993C50.9197 79.4478 50.4834 79.5872 50.1289 79.4103C50.0962 79.3942 50.069 79.3781 50.0417 79.3566V79.362ZM51.067 79.9411H50.8761L51.5578 78.6918L51.7487 78.7829L51.067 79.9411ZM51.9395 80.3915C51.5687 80.2199 51.4051 79.7856 51.5796 79.421C51.7541 79.0564 52.1959 78.8955 52.5667 79.0671C52.9376 79.2333 53.1012 79.6676 52.9321 80.0322C52.7739 80.3915 52.3486 80.5577 51.9832 80.4076C51.9723 80.4022 51.9559 80.3969 51.945 80.3915H51.9395ZM53.9519 79.9625C53.8974 79.866 53.8101 79.7856 53.7065 79.7373C53.5974 79.6784 53.4556 79.7159 53.3957 79.8231C53.3957 79.8339 53.3847 79.8392 53.3847 79.8499C53.2702 80.1127 53.9574 80.3003 53.7829 80.7293C53.6792 80.9384 53.4284 81.0296 53.2102 80.9331C53.0248 80.9009 52.8612 80.8044 52.7521 80.6542L52.9048 80.5631C52.9703 80.6918 53.0739 80.7883 53.2102 80.8419C53.3248 80.8955 53.4611 80.8419 53.5156 80.7347C53.6302 80.4558 52.943 80.2682 53.1175 79.8553C53.2102 79.6462 53.4556 79.5497 53.6683 79.6408C53.6738 79.6408 53.6847 79.6462 53.6901 79.6515C53.8319 79.6998 53.9465 79.8017 54.0119 79.9304L53.9574 79.9679L53.9519 79.9625ZM55.1517 81.5497C54.8627 81.4961 54.6718 81.228 54.7209 80.9438C54.7209 80.9277 54.7263 80.9116 54.7318 80.8955L54.9772 80.0162H55.1681L54.9227 80.8955C54.9063 81.0993 55.0645 81.2816 55.2771 81.2923C55.4353 81.303 55.5771 81.2172 55.648 81.0832L55.877 80.2038H56.0843L55.8389 81.0993C55.8225 81.3781 55.5826 81.5926 55.299 81.5765C55.2499 81.5765 55.2008 81.5658 55.1572 81.5497H55.1517ZM57.2023 81.9625H57.0114L56.5533 80.8955C56.5478 80.8151 56.5478 80.7347 56.5533 80.6542C56.5587 80.7239 56.5587 80.7936 56.5533 80.858L56.3842 81.7749H56.1934L56.4388 80.3754H56.646L57.1041 81.4049L57.1968 81.6301C57.1914 81.5604 57.1914 81.4907 57.1968 81.4263L57.3659 80.5095H57.5568L57.1968 81.9679L57.2023 81.9625ZM57.7531 81.9625H57.5458L57.7149 80.5416H57.9221L57.7531 81.9625ZM58.7402 82.0537C58.3421 82.043 58.0258 81.7213 58.0367 81.3298C58.0367 81.3191 58.0367 81.303 58.0367 81.2923C58.0585 80.8902 58.4075 80.5792 58.8165 80.6006C59.2147 80.6113 59.531 80.933 59.5201 81.3245C59.5201 81.3352 59.5201 81.3513 59.5201 81.362C59.5419 81.7534 59.2365 82.0912 58.8384 82.1127C58.8056 82.1127 58.7729 82.1127 58.7402 82.1127V82.0591V82.0537ZM60.638 82.0537L59.9563 81.1583L59.8418 80.9545C59.8418 81.0242 59.8418 81.0939 59.8418 81.1583V82.0912H59.6346V80.6703H59.8418L60.5072 81.5658L60.638 81.7534C60.638 81.6891 60.638 81.6301 60.638 81.5658V80.6328H60.8453V82.0537H60.638ZM61.9851 81.925L61.8324 80.6542H62.0396L62.2305 81.8875L62.874 81.7963V81.9625L61.9796 81.925H61.9851ZM62.994 81.7588L62.7104 80.3593H62.9013L63.2067 81.7427L62.9995 81.7588H62.994ZM64.0411 81.5175L63.5448 81.6462L63.1631 80.2628L63.6593 80.1341C63.8557 80.0644 64.0738 80.1663 64.1447 80.3647C64.1447 80.3754 64.1502 80.3861 64.1556 80.3969C64.2211 80.4987 64.2211 80.6328 64.1556 80.7347C64.3192 80.7347 64.461 80.8526 64.4774 81.0135C64.5319 81.2923 64.3628 81.48 64.1556 81.555L64.0411 81.5175ZM64.761 81.3138L64.3029 79.9679L65.0991 79.7052V79.8714L64.4883 80.0591L64.641 80.488L65.1373 80.3218V80.488L64.6628 80.6542L64.7937 81.0832L65.4372 80.8794V81.0457L64.7555 81.3084L64.761 81.3138ZM66.6588 80.6596L66.1625 80.2467L65.879 80.3593L66.0862 80.8848H65.8953L65.3609 79.5765L65.759 79.4103H66.0262C66.2007 79.4156 66.3534 79.5282 66.408 79.6891C66.4952 79.8285 66.4952 80.0001 66.408 80.1395L66.9042 80.5524L66.6588 80.665V80.6596ZM67.3623 80.3432L66.8279 79.2226L66.3698 79.4263V79.2762L67.3787 78.7883V78.9384L66.9206 79.1422L67.4714 80.2843L67.3569 80.3379L67.3623 80.3432ZM68.8075 79.614L68.4858 79.3137L68.0113 79.5765V80.0054H67.8204L67.5914 78.5095L67.7823 78.4183L68.9221 79.4263L68.8075 79.614ZM69.5492 79.1851L69.1511 79.4263L68.3931 78.2306L68.7912 77.9679C69.0966 77.7481 69.522 77.8124 69.7456 78.1127C69.7619 78.1395 69.7837 78.1663 69.7946 78.1931C70.0346 78.4666 70.0019 78.8794 69.7237 79.1154C69.6692 79.1582 69.6147 79.1958 69.5492 79.2226V79.1851Z" fill="#1C1E4D"/>
<path d="M68.8741 78.1605L68.645 78.2891L69.234 79.2057L69.4631 79.0556C69.703 78.927 69.7903 78.6322 69.6648 78.3963C69.6539 78.3695 69.6376 78.3481 69.6158 78.3267C69.4958 78.0854 69.1958 77.989 68.9504 78.1123C68.9232 78.1283 68.8959 78.1444 68.8741 78.1605Z" fill="#1C1E4D"/>
<rect x="152" width="3" height="120" fill="#1C1E4D"/>
</svg>
